<svg width="20" height="20" viewBox="0 0 20 20" fill="none" xmlns="http://www.w3.org/2000/svg">
<g clip-path="url(#clip0_693_13300)">
<path d="M18.6914 17.5C18.6914 17.5 19.9414 17.5 19.9414 16.25C19.9414 15 18.6914 11.25 13.6914 11.25C8.69141 11.25 7.44141 15 7.44141 16.25C7.44141 17.5 8.69141 17.5 8.69141 17.5H18.6914ZM8.71891 16.25L8.69141 16.245C8.69266 15.915 8.90016 14.9575 9.64141 14.095C10.3314 13.2863 11.5439 12.5 13.6914 12.5C15.8377 12.5 17.0502 13.2875 17.7414 14.095C18.4827 14.9575 18.6889 15.9163 18.6914 16.245L18.6814 16.2475L18.6639 16.25H8.71891ZM13.6914 8.75C14.3544 8.75 14.9903 8.48661 15.4592 8.01777C15.928 7.54893 16.1914 6.91304 16.1914 6.25C16.1914 5.58696 15.928 4.95107 15.4592 4.48223C14.9903 4.01339 14.3544 3.75 13.6914 3.75C13.0284 3.75 12.3925 4.01339 11.9236 4.48223C11.4548 4.95107 11.1914 5.58696 11.1914 6.25C11.1914 6.91304 11.4548 7.54893 11.9236 8.01777C12.3925 8.48661 13.0284 8.75 13.6914 8.75ZM17.4414 6.25C17.4414 6.74246 17.3444 7.23009 17.156 7.68506C16.9675 8.14003 16.6913 8.55343 16.3431 8.90165C15.9948 9.24987 15.5814 9.52609 15.1265 9.71455C14.6715 9.903 14.1839 10 13.6914 10C13.1989 10 12.7113 9.903 12.2563 9.71455C11.8014 9.52609 11.388 9.24987 11.0398 8.90165C10.6915 8.55343 10.4153 8.14003 10.2269 7.68506C10.0384 7.23009 9.94141 6.74246 9.94141 6.25C9.94141 5.25544 10.3365 4.30161 11.0398 3.59835C11.743 2.89509 12.6968 2.5 13.6914 2.5C14.686 2.5 15.6398 2.89509 16.3431 3.59835C17.0463 4.30161 17.4414 5.25544 17.4414 6.25ZM8.61141 11.6C8.1111 11.4436 7.59579 11.3402 7.07391 11.2913C6.78062 11.2626 6.48608 11.2489 6.19141 11.25C1.19141 11.25 -0.0585938 15 -0.0585938 16.25C-0.0585938 17.0833 0.358073 17.5 1.19141 17.5H6.46141C6.27619 17.1097 6.18378 16.6819 6.19141 16.25C6.19141 14.9875 6.66266 13.6975 7.55391 12.62C7.85766 12.2525 8.21141 11.9087 8.61141 11.6ZM6.09141 12.5C5.35206 13.6118 4.95246 14.9148 4.94141 16.25H1.19141C1.19141 15.925 1.39641 14.9625 2.14141 14.095C2.82266 13.3 4.00641 12.525 6.09141 12.5013V12.5ZM1.81641 6.875C1.81641 5.88044 2.21149 4.92661 2.91476 4.22335C3.61802 3.52009 4.57184 3.125 5.56641 3.125C6.56097 3.125 7.5148 3.52009 8.21806 4.22335C8.92132 4.92661 9.31641 5.88044 9.31641 6.875C9.31641 7.86956 8.92132 8.82339 8.21806 9.52665C7.5148 10.2299 6.56097 10.625 5.56641 10.625C4.57184 10.625 3.61802 10.2299 2.91476 9.52665C2.21149 8.82339 1.81641 7.86956 1.81641 6.875ZM5.56641 4.375C4.90337 4.375 4.26748 4.63839 3.79864 5.10723C3.3298 5.57607 3.06641 6.21196 3.06641 6.875C3.06641 7.53804 3.3298 8.17393 3.79864 8.64277C4.26748 9.11161 4.90337 9.375 5.56641 9.375C6.22945 9.375 6.86533 9.11161 7.33417 8.64277C7.80301 8.17393 8.06641 7.53804 8.06641 6.875C8.06641 6.21196 7.80301 5.57607 7.33417 5.10723C6.86533 4.63839 6.22945 4.375 5.56641 4.375Z" fill="#242424"/>
</g>
<defs>
<clipPath id="clip0_693_13300">
<rect width="20" height="20" fill="white"/>
</clipPath>
</defs>
</svg>
