<svg width="24" height="24" viewBox="0 0 24 24" fill="none" xmlns="http://www.w3.org/2000/svg">
<path d="M17.9641 4.85645H17.0903V7.47786C17.0903 7.70961 16.9982 7.93187 16.8343 8.09574C16.6705 8.25961 16.4482 8.35167 16.2165 8.35167C15.9847 8.35167 15.7625 8.25961 15.5986 8.09574C15.4347 7.93187 15.3427 7.70961 15.3427 7.47786V4.85645H8.35221V7.47786C8.35221 7.70961 8.26015 7.93187 8.09628 8.09574C7.93241 8.25961 7.71015 8.35167 7.4784 8.35167C7.24666 8.35167 7.0244 8.25961 6.86053 8.09574C6.69666 7.93187 6.6046 7.70961 6.6046 7.47786V4.85645H5.73079C5.03555 4.85645 4.36878 5.13263 3.87717 5.62424C3.38556 6.11585 3.10938 6.78262 3.10938 7.47786V10.0993H20.5855V7.47786C20.5855 6.78262 20.3093 6.11585 19.8177 5.62424C19.3261 5.13263 18.6593 4.85645 17.9641 4.85645Z" fill="white"/>
<path opacity="0.5" d="M20.4761 9.99045H3V17.8547C3 18.5499 3.27618 19.2167 3.7678 19.7083C4.25941 20.1999 4.92617 20.4761 5.62142 20.4761H17.8547C18.5499 20.4761 19.2167 20.1999 19.7083 19.7083C20.1999 19.2167 20.4761 18.5499 20.4761 17.8547V9.99045ZM7.36903 8.24284C7.13728 8.24284 6.91503 8.15077 6.75116 7.9869C6.58729 7.82303 6.49522 7.60078 6.49522 7.36903V3.87381C6.49522 3.64206 6.58729 3.4198 6.75116 3.25593C6.91503 3.09206 7.13728 3 7.36903 3C7.60078 3 7.82303 3.09206 7.9869 3.25593C8.15077 3.4198 8.24284 3.64206 8.24284 3.87381V7.36903C8.24284 7.60078 8.15077 7.82303 7.9869 7.9869C7.82303 8.15077 7.60078 8.24284 7.36903 8.24284ZM16.1071 8.24284C15.8753 8.24284 15.6531 8.15077 15.4892 7.9869C15.3253 7.82303 15.2333 7.60078 15.2333 7.36903V3.87381C15.2333 3.64206 15.3253 3.4198 15.4892 3.25593C15.6531 3.09206 15.8753 3 16.1071 3C16.3388 3 16.5611 3.09206 16.725 3.25593C16.8888 3.4198 16.9809 3.64206 16.9809 3.87381V7.36903C16.9809 7.60078 16.8888 7.82303 16.725 7.9869C16.5611 8.15077 16.3388 8.24284 16.1071 8.24284Z" fill="white" fill-opacity="0.28"/>
</svg>
