<svg width="21" height="22" viewBox="0 0 21 22" fill="none" xmlns="http://www.w3.org/2000/svg">
<path d="M16.6284 4.00995H15.7546V6.63137C15.7546 6.86311 15.6625 7.08537 15.4986 7.24924C15.3348 7.41311 15.1125 7.50517 14.8808 7.50517C14.649 7.50517 14.4268 7.41311 14.2629 7.24924C14.099 7.08537 14.007 6.86311 14.007 6.63137V4.00995H7.01652V6.63137C7.01652 6.86311 6.92446 7.08537 6.76058 7.24924C6.59671 7.41311 6.37446 7.50517 6.14271 7.50517C5.91096 7.50517 5.68871 7.41311 5.52484 7.24924C5.36097 7.08537 5.26891 6.86311 5.26891 6.63137V4.00995H4.3951C3.69986 4.00995 3.03309 4.28613 2.54148 4.77774C2.04987 5.26936 1.77368 5.93612 1.77368 6.63137V9.25278H19.2498V6.63137C19.2498 5.93612 18.9736 5.26936 18.482 4.77774C17.9904 4.28613 17.3236 4.00995 16.6284 4.00995Z" fill="#3554D1"/>
<path opacity="0.5" d="M19.1404 9.14346H1.66431V17.0077C1.66431 17.703 1.94049 18.3697 2.4321 18.8613C2.92371 19.3529 3.59048 19.6291 4.28572 19.6291H16.519C17.2142 19.6291 17.881 19.3529 18.3726 18.8613C18.8642 18.3697 19.1404 17.703 19.1404 17.0077V9.14346ZM6.03334 7.39585C5.80159 7.39585 5.57933 7.30379 5.41546 7.13992C5.25159 6.97605 5.15953 6.75379 5.15953 6.52204V3.02682C5.15953 2.79507 5.25159 2.57282 5.41546 2.40895C5.57933 2.24508 5.80159 2.15302 6.03334 2.15302C6.26508 2.15302 6.48734 2.24508 6.65121 2.40895C6.81508 2.57282 6.90714 2.79507 6.90714 3.02682V6.52204C6.90714 6.75379 6.81508 6.97605 6.65121 7.13992C6.48734 7.30379 6.26508 7.39585 6.03334 7.39585ZM14.7714 7.39585C14.5396 7.39585 14.3174 7.30379 14.1535 7.13992C13.9896 6.97605 13.8976 6.75379 13.8976 6.52204V3.02682C13.8976 2.79507 13.9896 2.57282 14.1535 2.40895C14.3174 2.24508 14.5396 2.15302 14.7714 2.15302C15.0031 2.15302 15.2254 2.24508 15.3893 2.40895C15.5531 2.57282 15.6452 2.79507 15.6452 3.02682V6.52204C15.6452 6.75379 15.5531 6.97605 15.3893 7.13992C15.2254 7.30379 15.0031 7.39585 14.7714 7.39585Z" fill="#3554D1"/>
</svg>
