<svg width="20" height="20" viewBox="0 0 20 20" fill="none" xmlns="http://www.w3.org/2000/svg">
<path opacity="0.5" d="M0 10C0 11.9778 0.58649 13.9112 1.6853 15.5557C2.78412 17.2002 4.3459 18.4819 6.17317 19.2388C8.00043 19.9957 10.0111 20.1937 11.9509 19.8079C13.8907 19.422 15.6725 18.4696 17.0711 17.0711C18.4696 15.6725 19.422 13.8907 19.8079 11.9509C20.1937 10.0111 19.9957 8.00043 19.2388 6.17317C18.4819 4.3459 17.2002 2.78412 15.5557 1.6853C13.9112 0.58649 11.9778 0 10 0C8.68678 0 7.38642 0.258658 6.17317 0.761205C4.95991 1.26375 3.85752 2.00035 2.92893 2.92893C1.05357 4.8043 0 7.34784 0 10ZM9 5C9 4.73478 9.10536 4.48043 9.29289 4.29289C9.48043 4.10536 9.73478 4 10 4C10.2652 4 10.5196 4.10536 10.7071 4.29289C10.8946 4.48043 11 4.73478 11 5V9.422L13.098 10.634C13.3258 10.7676 13.4915 10.9858 13.559 11.2411C13.6265 11.4964 13.5903 11.768 13.4583 11.9967C13.3262 12.2254 13.1091 12.3926 12.8543 12.4617C12.5994 12.5309 12.3276 12.4965 12.098 12.366L9.5 10.866C9.34832 10.7778 9.22236 10.6515 9.13465 10.4996C9.04693 10.3477 9.00051 10.1754 9 10V5Z" fill="#0D58C9"/>
</svg>
