<svg width="30" height="30" viewBox="0 0 30 30" fill="none" xmlns="http://www.w3.org/2000/svg">
<path fill-rule="evenodd" clip-rule="evenodd" d="M16.375 7.75H8.5C7.83696 7.75 7.20107 8.01339 6.73223 8.48223C6.26339 8.95107 6 9.58696 6 10.25V23.75C6 24.413 6.26339 25.0489 6.73223 25.5178C7.20107 25.9866 7.83696 26.25 8.5 26.25H22.25C23.625 26.25 24.75 25 24.75 23.625V13.75L19.75 19C19.375 19.375 18.875 19.75 18.25 19.875L14.875 20.625C12.75 21 10.75 19 11.125 16.75L11.875 13.125C12 12.5 12.375 11.875 12.75 11.5L16.5 7.625L16.375 7.75Z" fill="#7E8AA0"/>
<path fill-rule="evenodd" clip-rule="evenodd" d="M27 5.37461C26.7649 4.77919 26.3204 4.2902 25.75 3.99961C25.294 3.79958 24.7886 3.74031 24.2986 3.82939C23.8086 3.91847 23.3565 4.15185 23 4.49961L22.25 5.24961L25.875 8.99961L26.5 8.24961C26.7426 8.00207 26.9338 7.70893 27.0625 7.38712C27.1912 7.0653 27.255 6.72118 27.25 6.37461C27.25 6.12461 27.25 5.74961 27 5.37461ZM24 10.8746L20.5 7.12461L14.5 13.3746L14.375 13.7496L13.5 17.4996C13.5 17.8746 13.875 18.3746 14.25 18.2496L17.625 17.4996L18 17.3746L23.875 11.1246L24 10.8746Z" fill="#7E8AA0"/>
</svg>
