<svg id="Layer_1" data-name="Layer 1" xmlns="http://www.w3.org/2000/svg" viewBox="0 0 1920 805"><defs><style>.cls-1{fill:#3554d1;}</style></defs><title>shape9-2 [Converted]</title><path class="cls-1" d="M1920,18.45a118.41,118.41,0,0,0-14,.84c-.48-.16-1.44-.47-1.92-.64-4.92,1-10.13,0-15.15.51-2.47.11-4.41,1-6.45,1.63a27.88,27.88,0,0,1-9.38,1.1c-5.54-.51-10.65,1-16.08,1.21-3.23.11-5.75,1.47-9,1.48-3.88.32-7.82,0-11.69.27-5.17.64-10.28,1.41-15.43,2.08-4.75.52-9.65,0-14.41.41-3.78.24-7.88,1-11.34-.21a59,59,0,0,1-8.23-1c-3.53-.77-7.24.37-10.85-.07a65.1,65.1,0,0,0-12.17-.12c-2.1.55-4.47.37-6.69.55-1.82.54-3.59,1.1-5.45,1.57-4.54,1.76-10.6,1-15.62.31a57.85,57.85,0,0,1-16.65-1.51c-2.66-.64-5.62-.17-8.39-.19-4.77.15-9.36-.72-14.08-.78-8.84.47-17.24-1.55-26-1.85-3.38,0-6.68.54-10,.43s-6.47-.22-9.67,0c-2-.63-4.2-1.25-6.3-.4-2.67-1.35-6,0-9,.14-2.41,0-4.79-.5-7.17-.28-1.29.35-2.43.82-3.59,1.25-4.17-.73-8.57-.88-12.84-1.33.19-.4.57-1.18.75-1.58l-3.81,0-1.22-1c-4.12-1-8.63-.44-12.84-1-2.11-.35-4.33-.45-6.44-.75-2.09-.51-3.5-1.66-5.87-1.84a64.79,64.79,0,0,0-16.58-.43,102.71,102.71,0,0,1-10.69.44,12.32,12.32,0,0,0-7-.41c-7.57,1.4-15.69,2.46-23.7,1.59a29,29,0,0,1-14.43-4.21c-6.14-.75-11.69,1.64-17.81,1.06a109.66,109.66,0,0,0-13.93-.26l1.22-.85a80.79,80.79,0,0,0-9.85.16l-.8-.67-3.19.28c-4.79-.06-9.67.24-14.11-.94-7.29.77-14.76-.39-22,.62,0,.32.11,1,.15,1.27l2.15,1.2a35.63,35.63,0,0,0-11.14.62l2.21-1.29c-3.73,0-8.15-.6-11.44.33l.08.26,2.59.36-2,.13.33.88c1.88,0,3.78,0,5.69,0-3,1-6.89.06-9.11,1.72l-4.22-.31,3.64-.56-1.35-.65c1.86.25,4.39-.45,2.82-1.58-2.73-1.07-6.37-.85-9.55-.78s-6.81.18-9.2,1.51a26.12,26.12,0,0,1-2.61-2.81,47.25,47.25,0,0,0-6.45.91c0-.31,0-.92,0-1.22-3.82.39-7.22-.43-10.7-1a197.28,197.28,0,0,1-20.54,1c-2.41-.86-5.68-1.47-8.17-.33,0,.35,0,1,0,1.39-6.63-1.68-15.18-2.57-21.49,0,.74.5,1.5,1,2.27,1.5l-3.43.83c-2.16-1.68-6.22-1.92-9.72-1.77s-6.19-.93-9.07-1.64c.68-.22,1.39-.43,2.11-.64,0-.34-.07-1-.1-1.37-3.39-.37-7.43.1-10.15-1.26-1.8,0-3.6,0-5.36,0l2,1.62-1.68-.7-4.93-.19c-3.64-.27-6.93,1.22-10.58.66-5.37-.78-10.78-.12-16.12.25a43.13,43.13,0,0,0-12.25,1.12c-.37-.19-1.1-.6-1.46-.8a29.07,29.07,0,0,1-8.68-.8c-2.91-1-6.33-.3-9.46-.14-.94-.63-1.88-1.26-2.74-1.9-5.23-.63-11.79-1.15-16.22.73-1.31,0-2.6.06-3.87.07-4.09-1.08-8.74-1.14-13.12-1.65a10.22,10.22,0,0,0-4,.21c-1.6-.45-3-1.32-5-1a20.67,20.67,0,0,0-2.14,1.22c-1.38-.24-4.4,0-3.13-1.18l2.83-.07.33-.57,3.53-.35c-4.16-.41-8.39-.36-12.57-.51l-.23.67c0-.24-.08-.72-.1-1l-3.74.43c0,.45.14,1.34.18,1.78a34.09,34.09,0,0,0-8.68-.17c-1.65-.74-3.82-.77-5.84-.86l3.8-.28c-2-1.5-5.47-1.84-8.48-2.42l-1.37-1-4-.1c-1.81-1-4.48-.86-6.85-.94a10.37,10.37,0,0,0-3.86-.74c-5.71-.19-11.42-.1-17.12,0a16.5,16.5,0,0,0-5.69,1.2q-3.46.25-6.92.46l-.61,1.56c-2.15-.37-5.38-1.77-6.25.16-3.41-2.43-9.37-2.07-14.37-2.51-4.1-.26-8.09.39-12.11.64-3.66-1.23-8.19-.6-12.09-1.44a22.8,22.8,0,0,0-5.78-.1c-1.64-.08-3.28-.14-4.91-.15-2.17-.44-4.45-1-6.76-.48a86.3,86.3,0,0,0-17-1.28c-2.63.11-5.45-.35-7.87.35a12.91,12.91,0,0,0-7.16.07c-5.28-1-10.83-.4-16.28-.67-1.92,0-3.48.33-3,1.5-3.4,0-6.8-.05-10.19,0l-2,.64a72.42,72.42,0,0,0-11.69,0c-4.08-.3-8.16.38-12.22,0a12.92,12.92,0,0,0-4.63.42l2.74.26c.09.41.28,1.23.37,1.64-2.58,0-5.09-.3-7.61-.52-3,1.33-7.34.14-10.44,1.38a28.45,28.45,0,0,1-7.68,1,22.12,22.12,0,0,0-5.37,1.9l3.54.2-.12.5-3.07-.16L916,9.59l-3.14-.69a15.83,15.83,0,0,0-2.88,1.69c-2.61,0-5.22,0-7.83,0-1-.61-2-1.2-2.94-1.79a51.85,51.85,0,0,1-6.75,2.25c-2.28,0-4.48-.35-6.71-.54l1.93,1.53L884.77,12c-1.23,1.41-4.13,2-6.81,2.38-2.62-.1-5.26-.58-7.89-.28-1.71.52-2.68,1.5-4,2.25L863.21,16c-3.14.41-6.39.49-9.58.72a43.83,43.83,0,0,1-7.84-.64,97.8,97.8,0,0,0-17.86-1.66c-3.29,0-6-1.15-9.19-1.46a70.11,70.11,0,0,0-7.53-1.56c-.16-.26-.47-.79-.62-1.06-2.19-.14-4.56-.12-6.28-1,2.23-.55,4.48-1.11,6.87-1.46a19.54,19.54,0,0,1-6.9-1.69c-4,.08-8-.83-11.8.1-1.74-.21-3.49-.41-5.23-.59l.49-.74a17.83,17.83,0,0,1-5-1.11c-.67.72-1.32,1.44-2,2.17.25-.73.52-1.46.82-2.19A43.36,43.36,0,0,1,774,3.35c-4.73-.7-9.7-.28-14.42.24a25.06,25.06,0,0,1-5.12,1.21c-3.66-1.28-7.67-.3-11.35.33.1.24.29.71.38,1-1.61-.28-3.25-.49-4.9-.66l-.92,1.22a14.28,14.28,0,0,0-5,.14c-2.64.82-6.37.14-8.34,1.56l-2.95.36a18.67,18.67,0,0,0-6.85.25c-3.87,1-8.38-.39-12.1.9-7.7,1.39-16.12-1.49-23.57.4a19.88,19.88,0,0,1,3.68,2.35c-5.18,0-10.41.5-15.51-.17-4,0-8.06-.12-12-.47-4,.1-8,.32-12,.41-2-.36-4.06-.69-6.06-1.06-2.66.22-5.31.46-7.94.74l1.23-1.35H625.3c-2.75,1.38-6.82.91-10.22,1.32,0,.34,0,1,0,1.35l2.18.57c-2.92.75-5.74,2-9.19,1.69s-7.17.12-9.52,1.59c-2.71.07-5.42.19-8.13.09,1.68-.5,3.46-.89,5.27-1.25l1.37-.89c-.95-.45-1.89-.91-2.81-1.37A57.56,57.56,0,0,0,575.66,15c1.28-1.36-1.61-2-3.6-1.91a32.56,32.56,0,0,0-4.48,1c-5.6-.12-11.2-.14-16.74-.61-3.07-.82-6.3-.19-9.31.35-1.68.06-3.34.14-5,.23l-1.16,1.27c-2-1.07-4.92-.83-7.51-.88l1.17.9A7.71,7.71,0,0,0,527,16.43c-5.58-.76-11.77-1.74-17.38-.55L507.84,14c-3.19-.27-6.93-.91-9.3.66-1.91.35-4.42.41-5,1.68-2.87-.15-6.2.2-8.4-1-8.72-.85-18.17-.77-25.9,1.8-3.2,1.71-8,1.8-12.26,2.12-5.37.12-10.5,1-15.82,1.32-5.49.32-10.6,1.56-16.11,1.79-9.21.28-16.05,4-24.42,5.58a64.34,64.34,0,0,0-13.93.8c-11.32,1.87-23.21.14-34.73,1.05a20.67,20.67,0,0,0-2.91.68c-8.34.23-16.69.12-25,.17-6.89,0-13.74,1.09-20.63.5-4.18-.4-8.26.41-12.41.49-13,.25-26,.42-39,.76C234.36,32,226.66,31.47,219,32c-7.64-.23-15.31-.56-23-.38-5.72.09-11.33-1.15-17-.47-2.72.11-5.38.44-8.08.63-2.84-.13-5.59-.62-8.46-.6-1.36-1.39-4.17-.26-6,.14a52.74,52.74,0,0,1-8.33-1.16,38.7,38.7,0,0,1-4.62-2.78l-5.43-.33a18.11,18.11,0,0,1,.84,1.64c-2.27.09-3.43-1.48-5.78-1.2-4.45.34-8.85-.4-13.29-.13-4.84-1.22-10.27-.76-15.44-.89-.68-.3-1.36-.61-2-.9a22.73,22.73,0,0,1-4-2l-3.12.2c-2.23-.44-4.57-1.15-6.9-.47,1.59-.37,2.67-1.76-.2-1.39-4.92.57-9.4-.83-13.17-2.33-3.82,0-7.66-.11-11.45.21a110.45,110.45,0,0,0-14.89-.27c-.23.13-.69.39-.91.53-1.7-1.15-4.64-.58-7-.68-1.22.75-3.69,1.55-4.29,0A47.65,47.65,0,0,1,31.2,19c-4.86-.22-9.75.37-14.57-.12a9.74,9.74,0,0,0-3.94.39A126.92,126.92,0,0,0,0,18.44V786.56a126.92,126.92,0,0,0,12.69-.85,9.74,9.74,0,0,0,3.94.39c4.82-.49,9.71.1,14.57-.12a47.65,47.65,0,0,1,5.25-.42c.6-1.51,3.07-.71,4.29,0,2.33-.1,5.27.47,7-.68.22.14.68.4.91.53a110.45,110.45,0,0,0,14.89-.27c3.79.32,7.63.25,11.45.21,3.77-1.5,8.25-2.9,13.17-2.33,2.87.37,1.79-1,.2-1.39,2.33.68,4.67,0,6.9-.47l3.12.2a22.73,22.73,0,0,1,4-2c.69-.29,1.37-.6,2-.9,5.17-.13,10.6.33,15.44-.89,4.44.27,8.84-.47,13.29-.13,2.35.28,3.51-1.29,5.78-1.2a18.11,18.11,0,0,1-.84,1.64c1.81-.1,3.62-.22,5.43-.33a38.7,38.7,0,0,1,4.62-2.78,52.74,52.74,0,0,1,8.33-1.16c1.84.4,4.65,1.53,6,.14,2.87,0,5.62-.47,8.46-.6,2.7.19,5.36.52,8.08.63,5.67.68,11.28-.56,17-.47,7.67.18,15.34-.15,23-.38,7.7.55,15.4,0,23.06-.38,13,.34,26,.51,39,.76,4.15.08,8.23.89,12.41.49,6.89-.59,13.74.52,20.63.5,8.35,0,16.7-.06,25,.17a20.67,20.67,0,0,0,2.91.68c11.52.91,23.41-.82,34.73,1a64.34,64.34,0,0,0,13.93.8c8.37,1.58,15.21,5.3,24.42,5.58,5.51.23,10.62,1.47,16.11,1.79,5.32.3,10.45,1.2,15.82,1.32,4.23.32,9.06.41,12.26,2.12,7.73,2.57,17.18,2.65,25.9,1.8,2.2-1.22,5.53-.87,8.4-1,.56,1.27,3.07,1.33,5,1.68,2.37,1.57,6.11.93,9.3.66l1.75-1.86c5.61,1.19,11.8.21,17.38-.55a7.71,7.71,0,0,0,2.06,1.12l-1.17.9c2.59-.05,5.48.19,7.51-.88l1.16,1.27c1.66.09,3.32.17,5,.23,3,.54,6.24,1.17,9.31.35,5.54-.47,11.14-.49,16.74-.61a32.56,32.56,0,0,0,4.48,1c2,.07,4.88-.55,3.6-1.91a57.56,57.56,0,0,0,18.56,1.19c.92-.46,1.86-.92,2.81-1.37l-1.37-.89c-1.81-.36-3.59-.75-5.27-1.25,2.71-.1,5.42,0,8.13.09,2.35,1.47,6.1,1.76,9.52,1.59s6.27.94,9.19,1.69l-2.18.57c0,.33,0,1,0,1.35,3.4.41,7.47-.06,10.22,1.32h4.85L628.92,793c2.63.28,5.28.52,7.94.74,2-.37,4-.7,6.06-1.06,4,.09,8,.31,12,.41,4-.35,8-.42,12-.47,5.1-.67,10.33-.2,15.51-.17a19.88,19.88,0,0,1-3.68,2.35c7.45,1.89,15.87-1,23.57.4,3.72,1.29,8.23,0,12.1.9a18.67,18.67,0,0,0,6.85.25l2.95.36c2,1.42,5.7.74,8.34,1.56a14.28,14.28,0,0,0,5,.14l.92,1.22c1.65-.17,3.29-.38,4.9-.66-.09.24-.28.71-.38,1,3.68.63,7.69,1.61,11.35.33a25.06,25.06,0,0,1,5.12,1.21c4.72.52,9.69.94,14.42.24a43.36,43.36,0,0,1,7.61-.57c-.3-.73-.57-1.46-.82-2.19.64.73,1.29,1.45,2,2.17a17.83,17.83,0,0,1,5-1.11l-.49-.74c1.74-.18,3.49-.38,5.23-.59,3.77.93,7.84,0,11.8.1a19.54,19.54,0,0,1,6.9-1.69c-2.39-.35-4.64-.91-6.87-1.46,1.72-.83,4.09-.81,6.28-1,.15-.27.46-.8.62-1.06a70.11,70.11,0,0,0,7.53-1.56c3.18-.31,5.9-1.47,9.19-1.46a97.8,97.8,0,0,0,17.86-1.66,43.83,43.83,0,0,1,7.84-.64c3.19.23,6.44.31,9.58.72l2.87-.28c1.31.75,2.28,1.73,4,2.25,2.63.3,5.27-.18,7.89-.28,2.68.34,5.58,1,6.81,2.38l2.86-.09-1.93,1.53c2.23-.19,4.43-.54,6.71-.54a51.85,51.85,0,0,1,6.75,2.25c1-.59,2-1.18,2.94-1.79,2.61,0,5.22,0,7.83,0a15.83,15.83,0,0,0,2.88,1.69l3.14-.69,1.75.84,3.07-.16.12.5-3.54.2a22.12,22.12,0,0,0,5.37,1.9,28.45,28.45,0,0,1,7.68,1c3.1,1.24,7.48,0,10.44,1.38,2.52-.22,5-.53,7.61-.52-.09.41-.28,1.23-.37,1.64l-2.74.26a12.92,12.92,0,0,0,4.63.42c4.06-.39,8.14.29,12.22,0a72.42,72.42,0,0,0,11.69,0l2,.64c3.39.08,6.79.06,10.19,0-.47,1.17,1.09,1.55,3,1.5,5.45-.27,11,.36,16.28-.67a12.91,12.91,0,0,0,7.16.07c2.42.7,5.24.24,7.87.35a86.3,86.3,0,0,0,17-1.28c2.31.56,4.59,0,6.76-.48,1.63,0,3.27-.07,4.91-.15a22.8,22.8,0,0,0,5.78-.1c3.9-.84,8.43-.21,12.09-1.44,4,.25,8,.9,12.11.64,5-.44,11-.08,14.37-2.51.87,1.93,4.1.53,6.25.16l.61,1.56q3.45.21,6.92.46a16.5,16.5,0,0,0,5.69,1.2c5.7.12,11.41.21,17.12,0a10.37,10.37,0,0,0,3.86-.74c2.37-.08,5,.08,6.85-.94l4-.1,1.37-.95c3-.58,6.53-.92,8.48-2.42l-3.8-.28c2-.09,4.19-.12,5.84-.86a34.09,34.09,0,0,0,8.68-.17c0,.44-.13,1.33-.18,1.78l3.74.43c0-.24.07-.72.1-1l.23.67c4.18-.15,8.41-.1,12.57-.51l-3.53-.35-.33-.57-2.83-.07c-1.27-1.21,1.75-.94,3.13-1.18a20.67,20.67,0,0,0,2.14,1.22c2,.29,3.43-.58,5-1a10.22,10.22,0,0,0,4,.21c4.38-.51,9-.57,13.12-1.65,1.27,0,2.56,0,3.87.07,4.43,1.88,11,1.36,16.22.73.86-.64,1.8-1.27,2.74-1.9,3.13.16,6.55.82,9.46-.14a29.07,29.07,0,0,1,8.68-.8c.36-.2,1.09-.61,1.46-.8a43.13,43.13,0,0,0,12.25,1.12c5.34.37,10.75,1,16.12.25,3.65-.56,6.94.93,10.58.66l4.93-.19,1.68-.7-2,1.62c1.76,0,3.56,0,5.36,0,2.72-1.36,6.76-.89,10.15-1.26,0-.35.07-1,.1-1.37-.72-.21-1.43-.42-2.11-.64,2.88-.71,5.71-1.81,9.07-1.64s7.56-.09,9.72-1.77l3.43.83c-.77.49-1.53,1-2.27,1.5,6.31,2.52,14.86,1.63,21.49-.05,0,.35,0,1,0,1.39,2.49,1.14,5.76.53,8.17-.33a197.28,197.28,0,0,1,20.54,1c3.48-.57,6.88-1.39,10.7-1,0-.3,0-.91,0-1.22a47.25,47.25,0,0,0,6.45.91,26.12,26.12,0,0,1,2.61-2.81c2.39,1.33,6,1.29,9.2,1.51s6.82.29,9.55-.78c1.57-1.13-1-1.83-2.82-1.58l1.35-.65-3.64-.56,4.22-.31c2.22,1.66,6.16.73,9.11,1.72-1.91,0-3.81,0-5.69,0l-.33.88,2,.13-2.59.36-.08.26c3.29.93,7.71.32,11.44.33l-2.21-1.29a35.63,35.63,0,0,0,11.14.62l-2.15,1.2c0,.31-.11.95-.15,1.27,7.26,1,14.73-.15,22,.62,4.44-1.18,9.32-.88,14.11-.94l3.19.28.8-.67a80.79,80.79,0,0,0,9.85.16l-1.22-.85a109.66,109.66,0,0,0,13.93-.26c6.12-.58,11.67,1.81,17.81,1.06a29,29,0,0,1,14.43-4.21c8-.87,16.13.19,23.7,1.59a12.32,12.32,0,0,0,7-.41,102.71,102.71,0,0,1,10.69.44,64.79,64.79,0,0,0,16.58-.43c2.37-.18,3.78-1.33,5.87-1.84,2.11-.3,4.33-.4,6.44-.75,4.21-.56,8.72,0,12.84-1l1.22-1,3.81,0c-.18-.4-.56-1.18-.75-1.58,4.27-.45,8.67-.6,12.84-1.33,1.16.43,2.3.9,3.59,1.25,2.38.22,4.76-.24,7.17-.28,3,.15,6.36,1.49,9,.14,2.1.85,4.34.23,6.3-.4,3.2.2,6.44.1,9.67,0s6.67.41,10,.43c8.73-.3,17.13-2.32,26-1.85,4.72-.06,9.31-.93,14.08-.78,2.77,0,5.73.45,8.39-.19a57.85,57.85,0,0,1,16.65-1.51c5-.69,11.08-1.45,15.62.31,1.86.47,3.63,1,5.45,1.57,2.22.18,4.59,0,6.69.55a65.1,65.1,0,0,0,12.17-.12c3.61-.44,7.32.7,10.85-.07a59,59,0,0,1,8.23-1c3.46-1.19,7.56-.45,11.34-.21,4.76.42,9.66-.11,14.41.41,5.15.67,10.26,1.44,15.43,2.08,3.87.26,7.81,0,11.69.27,3.26,0,5.78,1.37,9,1.48,5.43.21,10.54,1.72,16.08,1.21a27.88,27.88,0,0,1,9.38,1.1c2,.62,4,1.52,6.45,1.63,5,.55,10.23-.49,15.15.51.48-.17,1.44-.48,1.92-.64a118.41,118.41,0,0,0,14,.84Z" transform="translate(0 0)"/></svg>