<svg width="26" height="26" viewBox="0 0 26 26" fill="none" xmlns="http://www.w3.org/2000/svg">
<path fill-rule="evenodd" clip-rule="evenodd" d="M12.8372 6.65039C8.62011 6.65039 5.01869 9.21515 3.55957 12.8355C5.01869 16.4558 8.62011 19.0206 12.8372 19.0206C17.0543 19.0206 20.6558 16.4558 22.1149 12.8355C20.6558 9.21515 17.0543 6.65039 12.8372 6.65039ZM12.8373 16.9588C10.5094 16.9588 8.62015 15.1115 8.62015 12.8353C8.62015 10.5592 10.5094 8.71194 12.8373 8.71194C15.1651 8.71194 17.0544 10.5592 17.0544 12.8353C17.0544 15.1115 15.1651 16.9588 12.8373 16.9588ZM12.8369 10.3613C11.4368 10.3613 10.3066 11.4664 10.3066 12.8354C10.3066 14.2043 11.4368 15.3094 12.8369 15.3094C14.237 15.3094 15.3672 14.2043 15.3672 12.8354C15.3672 11.4664 14.237 10.3613 12.8369 10.3613Z" fill="#7E8AA0"/>
</svg>
