<svg width="190" height="63" viewBox="0 0 190 63" fill="none" xmlns="http://www.w3.org/2000/svg">
<rect x="5.24023" y="4.80273" width="178.337" height="49.4808" rx="10.3085" fill="white" stroke="#DCDCDC" stroke-width="1.03085"/>
<path d="M73.4382 29.8416H78.475V31.4291H73.4382V29.8416ZM73.597 35.2969H71.7208V25.1945H79.0955V26.7676H73.597V35.2969ZM85.2311 35.2969V33.7382L85.1301 33.4063V30.6787C85.1301 30.1495 84.9713 29.7406 84.6538 29.452C84.3363 29.1537 83.8553 29.0046 83.2107 29.0046C82.7777 29.0046 82.3496 29.0719 81.9262 29.2066C81.5125 29.3413 81.1613 29.5289 80.8727 29.7695L80.1655 28.4561C80.5792 28.1386 81.0699 27.9029 81.6376 27.749C82.2149 27.5854 82.8114 27.5036 83.4271 27.5036C84.5432 27.5036 85.4043 27.773 86.0104 28.3118C86.6262 28.841 86.9341 29.6636 86.9341 30.7797V35.2969H85.2311ZM82.8066 35.3979C82.2293 35.3979 81.7242 35.3017 81.2912 35.1093C80.8583 34.9072 80.5215 34.633 80.281 34.2866C80.0501 33.9307 79.9346 33.5314 79.9346 33.0888C79.9346 32.6558 80.0356 32.2662 80.2377 31.9198C80.4493 31.5734 80.7909 31.2992 81.2623 31.0972C81.7338 30.8951 82.3592 30.7941 83.1385 30.7941H85.3754V31.992H83.2684C82.6526 31.992 82.2389 32.093 82.0272 32.295C81.8156 32.4875 81.7097 32.728 81.7097 33.0166C81.7097 33.3438 81.8396 33.6035 82.0994 33.796C82.3592 33.9884 82.72 34.0846 83.1818 34.0846C83.6244 34.0846 84.0188 33.9836 84.3652 33.7815C84.7212 33.5795 84.9762 33.2812 85.1301 32.8867L85.4332 33.9691C85.26 34.4213 84.9473 34.7725 84.4951 35.0227C84.0525 35.2728 83.4897 35.3979 82.8066 35.3979ZM92.7992 35.3979C91.991 35.3979 91.2694 35.2295 90.6344 34.8928C90.009 34.5464 89.5183 34.075 89.1624 33.4785C88.8064 32.8819 88.6284 32.2036 88.6284 31.4436C88.6284 30.6739 88.8064 29.9956 89.1624 29.4087C89.5183 28.8121 90.009 28.3455 90.6344 28.0088C91.2694 27.672 91.991 27.5036 92.7992 27.5036C93.5497 27.5036 94.2087 27.6576 94.7764 27.9655C95.3536 28.2637 95.7914 28.7063 96.0897 29.2932L94.7042 30.1014C94.4733 29.7358 94.1895 29.4664 93.8527 29.2932C93.5256 29.12 93.1696 29.0334 92.7848 29.0334C92.3422 29.0334 91.9429 29.1296 91.5869 29.3221C91.2309 29.5145 90.9519 29.7935 90.7499 30.1591C90.5478 30.5151 90.4468 30.9432 90.4468 31.4436C90.4468 31.9439 90.5478 32.3768 90.7499 32.7424C90.9519 33.0984 91.2309 33.3726 91.5869 33.565C91.9429 33.7575 92.3422 33.8537 92.7848 33.8537C93.1696 33.8537 93.5256 33.7671 93.8527 33.5939C94.1895 33.4207 94.4733 33.1513 94.7042 32.7857L96.0897 33.5939C95.7914 34.1712 95.3536 34.6186 94.7764 34.9361C94.2087 35.244 93.5497 35.3979 92.7992 35.3979ZM101.159 35.3979C100.302 35.3979 99.552 35.2295 98.9074 34.8928C98.2724 34.5464 97.7769 34.075 97.4209 33.4785C97.0745 32.8819 96.9014 32.2036 96.9014 31.4436C96.9014 30.6739 97.0697 29.9956 97.4065 29.4087C97.7528 28.8121 98.2243 28.3455 98.8208 28.0088C99.4269 27.672 100.115 27.5036 100.885 27.5036C101.635 27.5036 102.304 27.6672 102.891 27.9943C103.477 28.3215 103.939 28.7833 104.276 29.3798C104.613 29.9763 104.781 30.6787 104.781 31.4869C104.781 31.5638 104.776 31.6504 104.767 31.7466C104.767 31.8428 104.762 31.9342 104.752 32.0208H98.3301V30.823H103.8L103.093 31.1982C103.102 30.7556 103.011 30.366 102.818 30.0292C102.626 29.6925 102.361 29.4279 102.025 29.2355C101.698 29.043 101.318 28.9468 100.885 28.9468C100.442 28.9468 100.052 29.043 99.7156 29.2355C99.3885 29.4279 99.1287 29.6973 98.9363 30.0437C98.7534 30.3804 98.662 30.7797 98.662 31.2415V31.5301C98.662 31.992 98.7679 32.4009 98.9795 32.7569C99.1912 33.1128 99.4895 33.3871 99.8743 33.5795C100.259 33.7719 100.702 33.8681 101.202 33.8681C101.635 33.8681 102.025 33.8008 102.371 33.6661C102.717 33.5314 103.025 33.3197 103.295 33.0311L104.262 34.1423C103.915 34.5464 103.477 34.8591 102.948 35.0804C102.429 35.2921 101.832 35.3979 101.159 35.3979ZM110.786 35.3979C110.132 35.3979 109.55 35.2536 109.04 34.9649C108.53 34.6763 108.126 34.2433 107.827 33.6661C107.539 33.0792 107.394 32.3383 107.394 31.4436C107.394 30.5392 107.543 29.7983 107.842 29.221C108.15 28.6438 108.559 28.2156 109.068 27.9366C109.588 27.648 110.16 27.5036 110.786 27.5036C111.546 27.5036 112.215 27.6672 112.792 27.9943C113.379 28.3215 113.841 28.7785 114.177 29.3654C114.524 29.9523 114.697 30.645 114.697 31.4436C114.697 32.2421 114.524 32.9349 114.177 33.5217C113.841 34.1086 113.379 34.5705 112.792 34.9072C112.215 35.2343 111.546 35.3979 110.786 35.3979ZM106.514 35.2969V24.5884H108.318V29.3798L108.174 31.4291L108.231 33.4785V35.2969H106.514ZM110.584 33.8537C111.017 33.8537 111.402 33.7575 111.738 33.565C112.085 33.3726 112.359 33.0936 112.561 32.728C112.763 32.3624 112.864 31.9342 112.864 31.4436C112.864 30.9432 112.763 30.5151 112.561 30.1591C112.359 29.7935 112.085 29.5145 111.738 29.3221C111.402 29.1296 111.017 29.0334 110.584 29.0334C110.151 29.0334 109.761 29.1296 109.415 29.3221C109.068 29.5145 108.794 29.7935 108.592 30.1591C108.39 30.5151 108.289 30.9432 108.289 31.4436C108.289 31.9342 108.39 32.3624 108.592 32.728C108.794 33.0936 109.068 33.3726 109.415 33.565C109.761 33.7575 110.151 33.8537 110.584 33.8537ZM119.871 35.3979C119.082 35.3979 118.38 35.2295 117.764 34.8928C117.149 34.5464 116.663 34.075 116.307 33.4785C115.951 32.8819 115.773 32.2036 115.773 31.4436C115.773 30.6739 115.951 29.9956 116.307 29.4087C116.663 28.8121 117.149 28.3455 117.764 28.0088C118.38 27.672 119.082 27.5036 119.871 27.5036C120.67 27.5036 121.377 27.672 121.993 28.0088C122.618 28.3455 123.104 28.8073 123.451 29.3942C123.807 29.9811 123.985 30.6642 123.985 31.4436C123.985 32.2036 123.807 32.8819 123.451 33.4785C123.104 34.075 122.618 34.5464 121.993 34.8928C121.377 35.2295 120.67 35.3979 119.871 35.3979ZM119.871 33.8537C120.314 33.8537 120.708 33.7575 121.055 33.565C121.401 33.3726 121.671 33.0936 121.863 32.728C122.065 32.3624 122.166 31.9342 122.166 31.4436C122.166 30.9432 122.065 30.5151 121.863 30.1591C121.671 29.7935 121.401 29.5145 121.055 29.3221C120.708 29.1296 120.319 29.0334 119.886 29.0334C119.443 29.0334 119.049 29.1296 118.702 29.3221C118.366 29.5145 118.096 29.7935 117.894 30.1591C117.692 30.5151 117.591 30.9432 117.591 31.4436C117.591 31.9342 117.692 32.3624 117.894 32.728C118.096 33.0936 118.366 33.3726 118.702 33.565C119.049 33.7575 119.438 33.8537 119.871 33.8537ZM129.173 35.3979C128.384 35.3979 127.682 35.2295 127.066 34.8928C126.45 34.5464 125.965 34.075 125.609 33.4785C125.253 32.8819 125.075 32.2036 125.075 31.4436C125.075 30.6739 125.253 29.9956 125.609 29.4087C125.965 28.8121 126.45 28.3455 127.066 28.0088C127.682 27.672 128.384 27.5036 129.173 27.5036C129.972 27.5036 130.679 27.672 131.295 28.0088C131.92 28.3455 132.406 28.8073 132.752 29.3942C133.108 29.9811 133.286 30.6642 133.286 31.4436C133.286 32.2036 133.108 32.8819 132.752 33.4785C132.406 34.075 131.92 34.5464 131.295 34.8928C130.679 35.2295 129.972 35.3979 129.173 35.3979ZM129.173 33.8537C129.616 33.8537 130.01 33.7575 130.357 33.565C130.703 33.3726 130.972 33.0936 131.165 32.728C131.367 32.3624 131.468 31.9342 131.468 31.4436C131.468 30.9432 131.367 30.5151 131.165 30.1591C130.972 29.7935 130.703 29.5145 130.357 29.3221C130.01 29.1296 129.621 29.0334 129.188 29.0334C128.745 29.0334 128.351 29.1296 128.004 29.3221C127.668 29.5145 127.398 29.7935 127.196 30.1591C126.994 30.5151 126.893 30.9432 126.893 31.4436C126.893 31.9342 126.994 32.3624 127.196 32.728C127.398 33.0936 127.668 33.3726 128.004 33.565C128.351 33.7575 128.74 33.8537 129.173 33.8537ZM136.483 33.5795L136.527 31.3137L140.553 27.5902H142.718L139.298 31.025L138.345 31.8188L136.483 33.5795ZM135.011 35.2969V24.5884H136.815V35.2969H135.011ZM140.827 35.2969L138.013 31.8188L139.153 30.3756L143.021 35.2969H140.827Z" fill="#242424"/>
<circle cx="55.7517" cy="30.5749" r="8.24681" fill="#1977F3"/>
<path d="M58.9612 32.9585L59.3265 30.5741H57.0395V29.027C57.0395 28.3753 57.3585 27.7386 58.3837 27.7386H59.4239V25.7091C59.4239 25.7091 58.4799 25.5479 57.5776 25.5479C55.6943 25.5479 54.4626 26.689 54.4626 28.7568V30.5741H52.3682V32.9585H54.4626V38.7212C54.8824 38.7873 55.3127 38.8209 55.7511 38.8209C56.1895 38.8209 56.6197 38.7861 57.0395 38.7212V32.9585H58.9612Z" fill="white"/>
</svg>
