<svg id="Layer_1" data-name="Layer 1" xmlns="http://www.w3.org/2000/svg" viewBox="0 0 1920 626.28"><defs><style>.cls-1{fill:#3554d1;}</style></defs><title>shape8-2 [Converted]</title><path class="cls-1" d="M986.06,12.55c-.47-2.21,1.09-2.92,3-2.82,5.45.51,11-.68,16.28,1.25a7.21,7.21,0,0,1,7.16-.12c2.42-1.32,5.24-.46,7.87-.66a47.1,47.1,0,0,1,17,2.4c2.31-1,4.59.08,6.76.92,1.63,0,3.27.12,4.91.27,1.91-.15,3.91-.58,5.78.2,3.9,1.59,8.43.39,12.09,2.72,4-.48,8-1.71,12.11-1.22,5,.83,11,.16,14.37,4.75.87-3.64,4.1-1,6.25-.31l.61-2.94c2.3-.26,4.61-.54,6.92-.87a10.47,10.47,0,0,1,5.69-2.27,165.7,165.7,0,0,1,17.12,0,6.37,6.37,0,0,1,3.86,1.4c2.37.15,5-.16,6.85,1.76,1.3.08,2.61.15,4,.2L1146,19c3,1.09,6.53,1.72,8.48,4.55l-3.8.54c2,.16,4.19.22,5.84,1.62,2.87-.77,5.82-.3,8.68.33,0-.84-.13-2.52-.18-3.36l3.74-.82c0,.46.07,1.36.1,1.82.06-.32.17-1,.23-1.28,4.18.3,8.41.2,12.57,1l-3.53.66-.33,1.08-2.83.12c-1.27,2.3,1.75,1.79,3.13,2.23a24.28,24.28,0,0,1,2.14-2.29c2-.55,3.43,1.08,5,1.93a5.62,5.62,0,0,1,4-.39c4.38,1,9,1.07,13.12,3.12,1.27,0,2.56-.08,3.87-.13,4.43-3.55,11-2.57,16.22-1.39.86,1.22,1.8,2.41,2.74,3.59,3.13-.3,6.55-1.55,9.46.26,2.66,1.48,5.7,1.65,8.68,1.52.36.38,1.09,1.14,1.46,1.51,3.94-1.47,8-2.81,12.25-2.11,5.34-.7,10.75-2,16.12-.48,3.65,1.06,6.94-1.75,10.58-1.24,1.64.11,3.25.25,4.93.35l1.68,1.32-2-3.06c1.76,0,3.56,0,5.36,0,2.72,2.58,6.76,1.68,10.15,2.39,0,.65.07,1.94.1,2.58-.72.4-1.43.8-2.11,1.21,2.88,1.34,5.71,3.42,9.07,3.09s7.56.18,9.72,3.34l3.43-1.55c-.77-.94-1.53-1.89-2.27-2.84,6.31-4.76,14.86-3.08,21.49.1,0-.66,0-2,0-2.63,2.49-2.16,5.76-1,8.17.63a106.51,106.51,0,0,0,20.54-2c3.48,1.08,6.88,2.62,10.7,1.88,0,.57,0,1.73,0,2.31a27,27,0,0,1,6.45-1.72,51.19,51.19,0,0,0,2.61,5.31c2.39-2.51,6-2.43,9.2-2.86,3.18-.13,6.82-.54,9.55,1.48,1.57,2.14-1,3.45-2.82,3l1.35,1.23L1405.32,46c1.39.21,2.79.41,4.22.6,2.22-3.15,6.16-1.39,9.11-3.25-1.91,0-3.81,0-5.69,0-.08-.42-.25-1.25-.33-1.66l2-.25-2.59-.68-.08-.49c3.29-1.76,7.71-.6,11.44-.62l-2.21,2.42a19.65,19.65,0,0,1,11.14-1.17c-.73-.75-1.45-1.5-2.15-2.25,0-.6-.11-1.8-.15-2.4,7.26-1.91,14.73.27,22-1.18,4.44,2.23,9.32,1.67,14.11,1.77l3.19-.52.8,1.26c3.24-.67,6.56-.38,9.85-.3l-1.22,1.61a58.51,58.51,0,0,1,13.93.49c6.12,1.09,11.67-3.42,17.81-2a20.86,20.86,0,0,0,14.43,8c8,1.63,16.13-.36,23.7-3a7,7,0,0,1,7,.76c3.56-.13,7.18,0,10.69-.83,5.47-1.38,11.17-.48,16.58.81,2.37.34,3.78,2.52,5.87,3.48,2.11.57,4.33.75,6.44,1.42,4.21,1.06,8.72.08,12.84,1.89l1.22,2,3.81-.08c-.18.75-.56,2.24-.75,3,4.27.84,8.67,1.12,12.84,2.51a32.76,32.76,0,0,1,3.59-2.37c2.38-.41,4.76.46,7.17.53,3-.27,6.36-2.8,9-.25,2.1-1.61,4.34-.44,6.3.74a51.22,51.22,0,0,1,9.67,0c3.37.22,6.67-.77,10-.8,8.73.56,17.13,4.38,26,3.49,4.72.1,9.31,1.75,14.08,1.46,2.77,0,5.73-.84,8.39.37a32.15,32.15,0,0,0,16.65,2.85c5,1.3,11.08,2.73,15.62-.58,1.86-.89,3.63-2,5.45-3,2.22-.34,4.59,0,6.69-1a34.81,34.81,0,0,1,12.17.24c3.61.82,7.32-1.32,10.85.13a33.48,33.48,0,0,0,8.23,1.89c3.46,2.24,7.56.85,11.34.4,4.76-.8,9.66.2,14.41-.78,5.15-1.27,10.26-2.72,15.43-3.93,3.87-.48,7.81.09,11.69-.5,3.26,0,5.78-2.6,9-2.8,5.43-.39,10.54-3.25,16.08-2.28,3.3.63,6.43-.77,9.38-2.09,2-1.17,4-2.87,6.45-3.07,5-1,10.23.93,15.15-1l1.92,1.21a63.63,63.63,0,0,1,14-1.59V636H0V44.53a67.89,67.89,0,0,1,12.69,1.6c1.25-.53,2.54-1.2,3.94-.74,4.82.94,9.71-.17,14.57.23a25.15,25.15,0,0,0,5.25.8c.6,2.84,3.07,1.33,4.29-.08,2.33.2,5.27-.88,7,1.28.22-.25.68-.74.91-1,5-.78,10,0,14.89.51A63.48,63.48,0,0,1,75,46.74c3.77,2.84,8.25,5.47,13.17,4.39,2.87-.69,1.79,1.93.2,2.63,2.33-1.28,4.67.06,6.9.89l3.12-.38a21.75,21.75,0,0,0,4,3.75c.69.56,1.37,1.14,2,1.71,5.17.25,10.6-.62,15.44,1.68,4.44-.51,8.84.89,13.29.25,2.35-.53,3.51,2.43,5.78,2.25-.25-1-.53-2.07-.84-3.08q2.72.29,5.43.62a44.29,44.29,0,0,0,4.62,5.24,30.59,30.59,0,0,0,8.33,2.2c1.84-.77,4.65-2.89,6-.27,2.87,0,5.62.89,8.46,1.14,2.7-.37,5.36-1,8.08-1.2,5.67-1.28,11.28,1,17,.88,7.67-.33,15.34.3,23,.73,7.7-1,15.4-.1,23.06.72,13-.65,26-1,39-1.45,4.15-.14,8.23-1.67,12.41-.92,6.89,1.12,13.74-1,20.63-.94,8.35-.09,16.7.11,25-.32A12.62,12.62,0,0,1,342,66c11.52-1.72,23.41,1.55,34.73-2a34.74,34.74,0,0,1,13.93-1.52c8.37-3,15.21-10,24.42-10.53,5.51-.43,10.62-2.78,16.11-3.37C436.5,48,441.63,46.3,447,46.07c4.23-.59,9.06-.77,12.26-4,7.73-4.85,17.18-5,25.9-3.4,2.2,2.31,5.53,1.65,8.4,1.93.56-2.39,3.07-2.51,5-3.17,2.37-3,6.11-1.76,9.3-1.24l1.75,3.5c5.61-2.23,11.8-.38,17.38,1.05A8.14,8.14,0,0,1,529,38.62l-1.17-1.7c2.59.1,5.48-.36,7.51,1.67l1.16-2.41c1.66-.16,3.32-.31,5-.43,3-1,6.24-2.21,9.31-.66,5.54.89,11.14.92,16.74,1.15a20.32,20.32,0,0,1,4.48-1.84c2-.13,4.88,1,3.6,3.6a31.45,31.45,0,0,1,18.56-2.24c.92.87,1.86,1.73,2.81,2.58L595.66,40a36.06,36.06,0,0,0-5.27,2.36,66.88,66.88,0,0,0,8.13-.18c2.35-2.77,6.1-3.31,9.52-3,3.45.51,6.27-1.78,9.19-3.2L615.05,35c0-.64,0-1.91,0-2.55,3.4-.79,7.47.1,10.22-2.49,1.61,0,3.23,0,4.85,0-.3.63-.92,1.9-1.23,2.54,2.63-.52,5.28-1,7.94-1.38,2,.69,4,1.31,6.06,2,4-.17,8-.58,12-.77a85.16,85.16,0,0,0,12,.88c5.1,1.27,10.33.38,15.51.32a24,24,0,0,0-3.68-4.43c7.45-3.56,15.87,1.86,23.57-.76,3.72-2.43,8.23.1,12.1-1.69,2.14-1.17,4.54-.9,6.85-.48l2.95-.67c2-2.69,5.7-1.41,8.34-2.95,1.56-.87,3.34-.51,5-.26l.92-2.3a39.9,39.9,0,0,1,4.9,1.23c-.09-.45-.28-1.34-.38-1.79,3.68-1.19,7.69-3,11.35-.61a16.28,16.28,0,0,0,5.12-2.3c4.72-1,9.69-1.76,14.42-.44a23.59,23.59,0,0,0,7.61,1.07c-.3,1.38-.57,2.75-.82,4.13q1-2.05,2-4.09a11.26,11.26,0,0,0,5,2.1l-.49,1.39c1.74.34,3.49.71,5.23,1.11,3.77-1.76,7.84,0,11.8-.18a13,13,0,0,0,6.9,3.19,44.35,44.35,0,0,0-6.87,2.75c1.72,1.57,4.09,1.53,6.28,1.8.15.5.46,1.5.62,2a43.37,43.37,0,0,1,7.53,2.94c3.18.58,5.9,2.77,9.19,2.75a54.06,54.06,0,0,1,17.86,3.14,24.16,24.16,0,0,0,7.84,1.21A88.34,88.34,0,0,0,863.21,40l2.87.52c1.31-1.4,2.28-3.26,4-4.24,2.63-.57,5.27.34,7.89.53,2.68-.64,5.58-1.83,6.81-4.5l2.86.17c-.48-.72-1.44-2.16-1.93-2.88a42.32,42.32,0,0,0,6.71,1,38.29,38.29,0,0,0,6.75-4.25c1,1.11,2,2.23,2.94,3.38,2.61,0,5.22,0,7.83,0a18.15,18.15,0,0,1,2.88-3.19l3.14,1.3,1.75-1.59,3.07.32.12-1-3.54-.38c1.41-1.69,3.48-2.53,5.37-3.58a16.31,16.31,0,0,0,7.68-1.92c3.1-2.34,7.48-.09,10.44-2.6a47.44,47.44,0,0,0,7.61,1c-.09-.78-.28-2.33-.37-3.1l-2.74-.5c1.47-.57,3-1.24,4.63-.79,4.06.74,8.14-.55,12.22,0a38.5,38.5,0,0,1,11.69.1l2-1.21C979.26,12.46,982.66,12.49,986.06,12.55Z" transform="translate(0 -9.72)"/></svg>