<svg width="189" height="58" viewBox="0 0 189 58" fill="none" xmlns="http://www.w3.org/2000/svg">
<rect x="5.16211" y="4.80273" width="178.337" height="49.4808" rx="10.3085" fill="white" stroke="#DCDCDC" stroke-width="1.03085"/>
<path d="M85.4988 35.4412C84.7098 35.4412 83.9834 35.3161 83.3196 35.066C82.6653 34.8062 82.0928 34.4454 81.6022 33.9836C81.1115 33.5121 80.7314 32.9589 80.462 32.3239C80.1926 31.6889 80.0579 30.9962 80.0579 30.2457C80.0579 29.4952 80.1926 28.8025 80.462 28.1675C80.7314 27.5325 81.1115 26.9841 81.6022 26.5223C82.1025 26.0508 82.6845 25.69 83.3484 25.4399C84.0123 25.1801 84.7387 25.0502 85.5276 25.0502C86.3839 25.0502 87.1536 25.1897 87.8367 25.4687C88.5295 25.7478 89.1116 26.1567 89.583 26.6955L88.3996 27.85C88.0051 27.4555 87.577 27.1669 87.1151 26.9841C86.6629 26.7917 86.1626 26.6955 85.6142 26.6955C85.0851 26.6955 84.5944 26.782 84.1422 26.9552C83.69 27.1284 83.3003 27.3738 82.9732 27.6913C82.6461 28.0088 82.3911 28.384 82.2083 28.8169C82.0351 29.2499 81.9485 29.7262 81.9485 30.2457C81.9485 30.7556 82.0351 31.2271 82.2083 31.66C82.3911 32.093 82.6461 32.473 82.9732 32.8002C83.3003 33.1177 83.6852 33.363 84.1277 33.5362C84.5703 33.7094 85.061 33.796 85.5998 33.796C86.1001 33.796 86.5812 33.719 87.043 33.565C87.5144 33.4015 87.9618 33.1321 88.3852 32.7569L89.4531 34.1568C88.9239 34.5801 88.3082 34.9024 87.6058 35.1237C86.9131 35.3354 86.2107 35.4412 85.4988 35.4412ZM87.678 33.9114V30.1303H89.4531V34.1568L87.678 33.9114ZM95.2181 35.3979C94.4292 35.3979 93.7268 35.2295 93.111 34.8928C92.4953 34.5464 92.0094 34.075 91.6534 33.4785C91.2974 32.8819 91.1194 32.2036 91.1194 31.4436C91.1194 30.6739 91.2974 29.9956 91.6534 29.4087C92.0094 28.8121 92.4953 28.3455 93.111 28.0088C93.7268 27.672 94.4292 27.5036 95.2181 27.5036C96.0167 27.5036 96.7238 27.672 97.3396 28.0088C97.965 28.3455 98.4508 28.8073 98.7972 29.3942C99.1532 29.9811 99.3312 30.6642 99.3312 31.4436C99.3312 32.2036 99.1532 32.8819 98.7972 33.4785C98.4508 34.075 97.965 34.5464 97.3396 34.8928C96.7238 35.2295 96.0167 35.3979 95.2181 35.3979ZM95.2181 33.8537C95.6607 33.8537 96.0551 33.7575 96.4015 33.565C96.7479 33.3726 97.0173 33.0936 97.2097 32.728C97.4117 32.3624 97.5128 31.9342 97.5128 31.4436C97.5128 30.9432 97.4117 30.5151 97.2097 30.1591C97.0173 29.7935 96.7479 29.5145 96.4015 29.3221C96.0551 29.1296 95.6655 29.0334 95.2325 29.0334C94.79 29.0334 94.3955 29.1296 94.0491 29.3221C93.7124 29.5145 93.443 29.7935 93.2409 30.1591C93.0389 30.5151 92.9379 30.9432 92.9379 31.4436C92.9379 31.9342 93.0389 32.3624 93.2409 32.728C93.443 33.0936 93.7124 33.3726 94.0491 33.565C94.3955 33.7575 94.7851 33.8537 95.2181 33.8537ZM104.52 35.3979C103.731 35.3979 103.029 35.2295 102.413 34.8928C101.797 34.5464 101.311 34.075 100.955 33.4785C100.599 32.8819 100.421 32.2036 100.421 31.4436C100.421 30.6739 100.599 29.9956 100.955 29.4087C101.311 28.8121 101.797 28.3455 102.413 28.0088C103.029 27.672 103.731 27.5036 104.52 27.5036C105.318 27.5036 106.026 27.672 106.641 28.0088C107.267 28.3455 107.753 28.8073 108.099 29.3942C108.455 29.9811 108.633 30.6642 108.633 31.4436C108.633 32.2036 108.455 32.8819 108.099 33.4785C107.753 34.075 107.267 34.5464 106.641 34.8928C106.026 35.2295 105.318 35.3979 104.52 35.3979ZM104.52 33.8537C104.962 33.8537 105.357 33.7575 105.703 33.565C106.05 33.3726 106.319 33.0936 106.512 32.728C106.714 32.3624 106.815 31.9342 106.815 31.4436C106.815 30.9432 106.714 30.5151 106.512 30.1591C106.319 29.7935 106.05 29.5145 105.703 29.3221C105.357 29.1296 104.967 29.0334 104.534 29.0334C104.092 29.0334 103.697 29.1296 103.351 29.3221C103.014 29.5145 102.745 29.7935 102.543 30.1591C102.341 30.5151 102.24 30.9432 102.24 31.4436C102.24 31.9342 102.341 32.3624 102.543 32.728C102.745 33.0936 103.014 33.3726 103.351 33.565C103.697 33.7575 104.087 33.8537 104.52 33.8537ZM113.851 38.1977C113.139 38.1977 112.441 38.1015 111.758 37.9091C111.084 37.7262 110.531 37.4569 110.098 37.1009L110.906 35.7443C111.243 36.0233 111.667 36.2446 112.176 36.4081C112.696 36.5813 113.22 36.6679 113.75 36.6679C114.596 36.6679 115.217 36.4707 115.611 36.0762C116.006 35.6913 116.203 35.1093 116.203 34.3299V32.9589L116.347 31.2126L116.29 29.4664V27.5902H118.007V34.1279C118.007 35.523 117.651 36.5476 116.939 37.2019C116.227 37.8658 115.198 38.1977 113.851 38.1977ZM113.62 34.9505C112.888 34.9505 112.225 34.7966 111.628 34.4887C111.041 34.1712 110.575 33.7334 110.228 33.1754C109.891 32.6173 109.723 31.9631 109.723 31.2126C109.723 30.4718 109.891 29.8224 110.228 29.2643C110.575 28.7063 111.041 28.2733 111.628 27.9655C112.225 27.6576 112.888 27.5036 113.62 27.5036C114.274 27.5036 114.861 27.6335 115.38 27.8933C115.9 28.1531 116.314 28.5572 116.622 29.1056C116.939 29.654 117.098 30.3564 117.098 31.2126C117.098 32.0689 116.939 32.7761 116.622 33.3341C116.314 33.8825 115.9 34.2915 115.38 34.5608C114.861 34.8206 114.274 34.9505 113.62 34.9505ZM113.894 33.4207C114.346 33.4207 114.75 33.3293 115.106 33.1465C115.462 32.9541 115.736 32.6943 115.929 32.3672C116.131 32.0305 116.232 31.6456 116.232 31.2126C116.232 30.7797 116.131 30.3996 115.929 30.0725C115.736 29.7358 115.462 29.4808 115.106 29.3076C114.75 29.1248 114.346 29.0334 113.894 29.0334C113.442 29.0334 113.033 29.1248 112.667 29.3076C112.311 29.4808 112.032 29.7358 111.83 30.0725C111.638 30.3996 111.541 30.7797 111.541 31.2126C111.541 31.6456 111.638 32.0305 111.83 32.3672C112.032 32.6943 112.311 32.9541 112.667 33.1465C113.033 33.3293 113.442 33.4207 113.894 33.4207ZM120.379 35.2969V24.5884H122.183V35.2969H120.379ZM128.173 35.3979C127.317 35.3979 126.566 35.2295 125.921 34.8928C125.286 34.5464 124.791 34.075 124.435 33.4785C124.089 32.8819 123.915 32.2036 123.915 31.4436C123.915 30.6739 124.084 29.9956 124.421 29.4087C124.767 28.8121 125.238 28.3455 125.835 28.0088C126.441 27.672 127.129 27.5036 127.899 27.5036C128.649 27.5036 129.318 27.6672 129.905 27.9943C130.492 28.3215 130.953 28.7833 131.29 29.3798C131.627 29.9763 131.795 30.6787 131.795 31.4869C131.795 31.5638 131.79 31.6504 131.781 31.7466C131.781 31.8428 131.776 31.9342 131.766 32.0208H125.344V30.823H130.814L130.107 31.1982C130.116 30.7556 130.025 30.366 129.832 30.0292C129.64 29.6925 129.375 29.4279 129.039 29.2355C128.712 29.043 128.332 28.9468 127.899 28.9468C127.456 28.9468 127.066 29.043 126.73 29.2355C126.402 29.4279 126.143 29.6973 125.95 30.0437C125.767 30.3804 125.676 30.7797 125.676 31.2415V31.5301C125.676 31.992 125.782 32.4009 125.994 32.7569C126.205 33.1128 126.504 33.3871 126.888 33.5795C127.273 33.7719 127.716 33.8681 128.216 33.8681C128.649 33.8681 129.039 33.8008 129.385 33.6661C129.731 33.5314 130.039 33.3197 130.309 33.0311L131.276 34.1423C130.929 34.5464 130.492 34.8591 129.962 35.0804C129.443 35.2921 128.846 35.3979 128.173 35.3979Z" fill="#242424"/>
<path d="M73.1988 30.7655C73.1988 30.2049 73.1524 29.6413 73.0535 29.0898H65.1182V32.2654H69.6624C69.4738 33.2896 68.8679 34.1956 67.9807 34.7714V36.8319H70.6918C72.2838 35.3956 73.1988 33.2745 73.1988 30.7655Z" fill="#4285F4"/>
<path d="M65.1176 38.8216C67.3867 38.8216 69.3002 38.0913 70.6943 36.8308L67.9833 34.7703C67.229 35.2733 66.2552 35.5581 65.1207 35.5581C62.9259 35.5581 61.065 34.1067 60.3972 32.1553H57.5996V34.2794C59.0278 37.0641 61.9367 38.8216 65.1176 38.8216Z" fill="#34A853"/>
<path d="M60.3945 32.1556C60.0421 31.1314 60.0421 30.0223 60.3945 28.9982V26.874H57.6C56.4068 29.2042 56.4068 31.9495 57.6 34.2797L60.3945 32.1556Z" fill="#FBBC04"/>
<path d="M65.1176 25.5921C66.3171 25.574 67.4763 26.0164 68.345 26.8284L70.7469 24.474C69.226 23.0741 67.2074 22.3044 65.1176 22.3287C61.9367 22.3287 59.0278 24.0862 57.5996 26.8739L60.3941 28.998C61.0588 27.0436 62.9228 25.5921 65.1176 25.5921Z" fill="#FE2C25"/>
</svg>
