<svg width="17" height="19" viewBox="0 0 17 19" fill="none" xmlns="http://www.w3.org/2000/svg">
<path d="M8.50271 16.7572L7.90541 16.1397L7.9042 16.1385C5.69941 13.8679 3.9354 12.049 2.71213 10.3505C1.5011 8.66905 0.887138 7.19389 0.887138 5.62588C0.887138 3.0331 2.64972 1.20354 4.67516 1.20354C5.84069 1.20354 7.00986 1.82509 7.79052 2.86621L8.50029 3.81279L9.21006 2.86621C9.99073 1.82509 11.1599 1.20354 12.3254 1.20354C14.3509 1.20354 16.1134 3.0331 16.1134 5.62588C16.1134 7.19389 15.4995 8.6691 14.2883 10.352C13.065 12.0516 11.3012 13.8727 9.09664 16.1478C9.09634 16.1482 9.09603 16.1485 9.09572 16.1488L8.50271 16.7572Z" stroke="white" stroke-width="1.77428"/>
</svg>
