<svg width="45" height="45" viewBox="0 0 45 45" fill="none" xmlns="http://www.w3.org/2000/svg">
<rect x="1.58166" y="1.84033" width="41.2382" height="41.832" rx="20.6191" stroke="white" stroke-width="2.42577"/>
<path d="M29.4683 13.9888C30.1126 13.9888 30.6812 14.5574 30.6812 15.2396V29.7563C30.6812 30.4386 30.1126 30.9692 29.4683 30.9692H14.8757C14.2314 30.9692 13.7007 30.4386 13.7007 29.7563V15.2396C13.7007 14.5574 14.2314 13.9888 14.8757 13.9888H29.4683ZM18.8176 28.5435V20.4702H16.316V28.5435H18.8176ZM17.5668 19.3331C18.3628 19.3331 19.0071 18.6888 19.0071 17.8928C19.0071 17.0968 18.3628 16.4146 17.5668 16.4146C16.733 16.4146 16.0886 17.0968 16.0886 17.8928C16.0886 18.6888 16.733 19.3331 17.5668 19.3331ZM28.2554 28.5435V24.1088C28.2554 21.9484 27.7627 20.2428 25.2232 20.2428C24.0103 20.2428 23.1764 20.925 22.8353 21.5694H22.7974V20.4702H20.4095V28.5435H22.9111V24.5637C22.9111 23.5024 23.1006 22.479 24.4272 22.479C25.7159 22.479 25.7159 23.6919 25.7159 24.6016V28.5435H28.2554Z" fill="white"/>
</svg>
