<svg width="15" height="20" viewBox="0 0 15 20" fill="none" xmlns="http://www.w3.org/2000/svg">
<path fill-rule="evenodd" clip-rule="evenodd" d="M7.425 11.5502C8.30021 11.5502 9.13958 11.2025 9.75845 10.5836C10.3773 9.96478 10.725 9.12541 10.725 8.2502C10.725 7.37498 10.3773 6.53561 9.75845 5.91674C9.13958 5.29787 8.30021 4.9502 7.425 4.9502C6.54979 4.9502 5.71042 5.29787 5.09155 5.91674C4.47268 6.53561 4.125 7.37498 4.125 8.2502C4.125 9.12541 4.47268 9.96478 5.09155 10.5836C5.71042 11.2025 6.54979 11.5502 7.425 11.5502ZM7.425 6.6002C7.86261 6.6002 8.28229 6.77403 8.59173 7.08347C8.90116 7.3929 9.075 7.81259 9.075 8.2502C9.075 8.6878 8.90116 9.10749 8.59173 9.41692C8.28229 9.72636 7.86261 9.9002 7.425 9.9002C6.98739 9.9002 6.56771 9.72636 6.25827 9.41692C5.94884 9.10749 5.775 8.6878 5.775 8.2502C5.775 7.81259 5.94884 7.3929 6.25827 7.08347C6.56771 6.77403 6.98739 6.6002 7.425 6.6002Z" fill="#3554D1"/>
<path fill-rule="evenodd" clip-rule="evenodd" d="M0 7.8969C0 12.3073 4.37745 19.8 7.425 19.8C10.4742 19.8 14.85 12.3073 14.85 7.8969C14.85 3.5475 11.5385 0 7.425 0C3.31155 0 0 3.5475 0 7.8969ZM13.2 7.8969C13.2 11.5153 9.3258 18.15 7.425 18.15C5.52585 18.15 1.65 11.517 1.65 7.8969C1.65 4.43355 4.24875 1.65 7.425 1.65C10.6013 1.65 13.2 4.43355 13.2 7.8969Z" fill="#3554D1"/>
</svg>
