<svg width="12" height="18" viewBox="0 0 12 18" fill="none" xmlns="http://www.w3.org/2000/svg">
<path d="M-0.0585938 14.8851V5.11513C-0.0585938 4.67113 0.0997395 4.29113 0.416406 3.97513C0.732406 3.65846 1.11241 3.50013 1.55641 3.50013H3.84541V1.07713C3.84541 0.870462 3.92207 0.690462 4.07541 0.537129C4.22874 0.383796 4.40874 0.307129 4.61541 0.307129H7.26841C7.47507 0.307129 7.65507 0.383796 7.80841 0.537129C7.96174 0.690462 8.03841 0.870462 8.03841 1.07713V3.50013H10.3264C10.7704 3.50013 11.1504 3.65846 11.4664 3.97513C11.7831 4.29113 11.9414 4.67113 11.9414 5.11513V14.8851C11.9414 15.3291 11.7831 15.7091 11.4664 16.0251C11.1504 16.3418 10.7704 16.5001 10.3264 16.5001V17.0001C10.3264 17.1421 10.2777 17.2608 10.1804 17.3561C10.0837 17.4521 9.96374 17.5001 9.82041 17.5001C9.68574 17.5001 9.58041 17.4468 9.50441 17.3401C9.42841 17.2335 9.36907 17.1201 9.32641 17.0001V16.5001H2.55641V17.0001C2.55641 17.1421 2.50807 17.2608 2.41141 17.3561C2.31474 17.4515 2.19474 17.4995 2.05141 17.5001C1.91674 17.5001 1.81107 17.4468 1.73441 17.3401C1.65774 17.2335 1.59841 17.1201 1.55641 17.0001V16.5001C1.11241 16.5001 0.732406 16.3418 0.416406 16.0251C0.0997395 15.7091 -0.0585938 15.3291 -0.0585938 14.8851ZM4.84541 3.50013H7.03741V1.30813H4.84541V3.50013ZM5.94141 8.88513C6.82474 8.88513 7.68741 8.77246 8.52941 8.54713C9.37141 8.3218 10.1754 7.98446 10.9414 7.53513V5.11513C10.9414 4.9358 10.8837 4.78846 10.7684 4.67313C10.6531 4.5578 10.5057 4.50013 10.3264 4.50013H1.55641C1.37707 4.50013 1.22974 4.5578 1.11441 4.67313C0.999073 4.78846 0.941406 4.9358 0.941406 5.11513V7.53513C1.70807 7.98513 2.51241 8.32246 3.35441 8.54713C4.19641 8.7718 5.05874 8.88446 5.94141 8.88513ZM5.44141 10.3851V9.87313C4.65141 9.8158 3.88141 9.6908 3.13141 9.49813C2.38141 9.30613 1.65141 9.03013 0.941406 8.67013V14.8861C0.941406 15.0655 0.999073 15.2128 1.11441 15.3281C1.22974 15.4435 1.37707 15.5011 1.55641 15.5011H10.3264C10.5057 15.5011 10.6531 15.4435 10.7684 15.3281C10.8837 15.2128 10.9414 15.0655 10.9414 14.8861V8.67013C10.2314 9.03013 9.50141 9.3068 8.75141 9.50013C8.00141 9.69213 7.23141 9.8168 6.44141 9.87413V10.3861C6.44141 10.5275 6.39341 10.6461 6.29741 10.7421C6.20141 10.8381 6.08241 10.8861 5.94041 10.8861C5.79841 10.8861 5.67974 10.8381 5.58441 10.7421C5.48907 10.6461 5.44141 10.5265 5.44141 10.3851Z" fill="#242424"/>
</svg>
