<svg width="12" height="17" viewBox="0 0 12 17" fill="none" xmlns="http://www.w3.org/2000/svg">
<g clip-path="url(#clip0_2133_2727)">
<path d="M0 14.3851V4.61513C0 4.17113 0.158333 3.79113 0.475 3.47513C0.791 3.15846 1.171 3.00013 1.615 3.00013H3.904V0.577129C3.904 0.370462 3.98067 0.190462 4.134 0.0371292C4.28733 -0.116204 4.46733 -0.192871 4.674 -0.192871H7.327C7.53367 -0.192871 7.71367 -0.116204 7.867 0.0371292C8.02033 0.190462 8.097 0.370462 8.097 0.577129V3.00013H10.385C10.829 3.00013 11.209 3.15846 11.525 3.47513C11.8417 3.79113 12 4.17113 12 4.61513V14.3851C12 14.8291 11.8417 15.2091 11.525 15.5251C11.209 15.8418 10.829 16.0001 10.385 16.0001V16.5001C10.385 16.6421 10.3363 16.7608 10.239 16.8561C10.1423 16.9521 10.0223 17.0001 9.879 17.0001C9.74433 17.0001 9.639 16.9468 9.563 16.8401C9.487 16.7335 9.42767 16.6201 9.385 16.5001V16.0001H2.615V16.5001C2.615 16.6421 2.56667 16.7608 2.47 16.8561C2.37333 16.9515 2.25333 16.9995 2.11 17.0001C1.97533 17.0001 1.86967 16.9468 1.793 16.8401C1.71633 16.7335 1.657 16.6201 1.615 16.5001V16.0001C1.171 16.0001 0.791 15.8418 0.475 15.5251C0.158333 15.2091 0 14.8291 0 14.3851ZM4.904 3.00013H7.096V0.808129H4.904V3.00013ZM6 8.38513C6.88333 8.38513 7.746 8.27246 8.588 8.04713C9.43 7.8218 10.234 7.48446 11 7.03513V4.61513C11 4.4358 10.9423 4.28846 10.827 4.17313C10.7117 4.0578 10.5643 4.00013 10.385 4.00013H1.615C1.43567 4.00013 1.28833 4.0578 1.173 4.17313C1.05767 4.28846 1 4.4358 1 4.61513V7.03513C1.76667 7.48513 2.571 7.82246 3.413 8.04713C4.255 8.2718 5.11733 8.38446 6 8.38513ZM5.5 9.88513V9.37313C4.71 9.3158 3.94 9.1908 3.19 8.99813C2.44 8.80613 1.71 8.53013 1 8.17013V14.3861C1 14.5655 1.05767 14.7128 1.173 14.8281C1.28833 14.9435 1.43567 15.0011 1.615 15.0011H10.385C10.5643 15.0011 10.7117 14.9435 10.827 14.8281C10.9423 14.7128 11 14.5655 11 14.3861V8.17013C10.29 8.53013 9.56 8.8068 8.81 9.00013C8.06 9.19213 7.29 9.3168 6.5 9.37413V9.88613C6.5 10.0275 6.452 10.1461 6.356 10.2421C6.26 10.3381 6.141 10.3861 5.999 10.3861C5.857 10.3861 5.73833 10.3381 5.643 10.2421C5.54767 10.1461 5.5 10.0265 5.5 9.88513Z" fill="white"/>
</g>
<defs>
<clipPath id="clip0_2133_2727">
<rect width="12" height="17" fill="white"/>
</clipPath>
</defs>
</svg>
