<svg width="128" height="24" viewBox="0 0 128 24" fill="none" xmlns="http://www.w3.org/2000/svg">
<path d="M15.7651 18.5737C15.6388 18.5742 15.5156 18.5349 15.413 18.4612L10.5898 14.9645L5.76654 18.4612C5.6635 18.536 5.53936 18.576 5.41206 18.5755C5.28477 18.5751 5.16092 18.5341 5.05842 18.4587C4.95592 18.3832 4.88008 18.277 4.84187 18.1556C4.80366 18.0342 4.80505 17.9038 4.84585 17.7832L6.72699 12.2114L1.85164 8.86805C1.74604 8.79571 1.66633 8.6915 1.62418 8.57064C1.58202 8.44977 1.57961 8.3186 1.61732 8.19627C1.65502 8.07395 1.73085 7.96688 1.83374 7.89073C1.93662 7.81457 2.06116 7.77331 2.18916 7.77297H8.20384L10.019 2.18695C10.0581 2.06635 10.1344 1.96123 10.2369 1.88668C10.3395 1.81213 10.463 1.77197 10.5898 1.77197C10.7165 1.77197 10.8401 1.81213 10.9426 1.88668C11.0452 1.96123 11.1215 2.06635 11.1606 2.18695L12.9757 7.77485H18.9904C19.1185 7.77478 19.2433 7.81576 19.3465 7.89177C19.4497 7.96778 19.5259 8.07483 19.5638 8.19725C19.6017 8.31967 19.5995 8.45102 19.5574 8.57207C19.5153 8.69311 19.4355 8.79749 19.3298 8.86992L14.4525 12.2114L16.3325 17.7817C16.363 17.8719 16.3716 17.968 16.3575 18.0622C16.3435 18.1563 16.3073 18.2458 16.2518 18.3231C16.1964 18.4005 16.1234 18.4636 16.0387 18.5072C15.9541 18.5508 15.8603 18.5736 15.7651 18.5737Z" fill="#FFC107"/>
<g clip-path="url(#clip0_693_6412)">
<path d="M39.141 18.5737C39.0147 18.5742 38.8915 18.5349 38.7889 18.4612L33.9657 14.9645L29.1425 18.4612C29.0394 18.536 28.9153 18.576 28.788 18.5755C28.6607 18.5751 28.5368 18.5341 28.4343 18.4587C28.3318 18.3832 28.256 18.277 28.2178 18.1556C28.1796 18.0342 28.181 17.9038 28.2218 17.7832L30.1029 12.2114L25.2276 8.86805C25.122 8.79571 25.0422 8.6915 25.0001 8.57064C24.9579 8.44977 24.9555 8.3186 24.9932 8.19627C25.0309 8.07395 25.1068 7.96688 25.2097 7.89073C25.3125 7.81457 25.4371 7.77331 25.5651 7.77297H31.5798L33.3949 2.18695C33.434 2.06635 33.5103 1.96123 33.6128 1.88668C33.7154 1.81213 33.8389 1.77197 33.9657 1.77197C34.0925 1.77197 34.216 1.81213 34.3185 1.88668C34.4211 1.96123 34.4974 2.06635 34.5365 2.18695L36.3516 7.77485H42.3663C42.4944 7.77478 42.6193 7.81576 42.7224 7.89177C42.8256 7.96778 42.9018 8.07483 42.9397 8.19725C42.9777 8.31967 42.9754 8.45102 42.9333 8.57207C42.8912 8.69311 42.8114 8.79749 42.7057 8.86992L37.8285 12.2114L39.7085 17.7817C39.7389 17.8719 39.7475 17.968 39.7335 18.0622C39.7194 18.1563 39.6832 18.2458 39.6278 18.3231C39.5723 18.4005 39.4993 18.4636 39.4146 18.5072C39.33 18.5508 39.2362 18.5736 39.141 18.5737Z" fill="#FFC107"/>
</g>
<path d="M62.517 18.5737C62.3907 18.5742 62.2674 18.5349 62.1648 18.4612L57.3416 14.9645L52.5184 18.4612C52.4153 18.536 52.2912 18.576 52.1639 18.5755C52.0366 18.5751 51.9127 18.5341 51.8102 18.4587C51.7077 18.3832 51.6319 18.277 51.5937 18.1556C51.5555 18.0342 51.5569 17.9038 51.5977 17.7832L53.4788 12.2114L48.6035 8.86805C48.4979 8.79571 48.4182 8.6915 48.376 8.57064C48.3338 8.44977 48.3314 8.3186 48.3691 8.19627C48.4069 8.07395 48.4827 7.96688 48.5856 7.89073C48.6885 7.81457 48.813 7.77331 48.941 7.77297H54.9557L56.7708 2.18695C56.8099 2.06635 56.8862 1.96123 56.9887 1.88668C57.0913 1.81213 57.2148 1.77197 57.3416 1.77197C57.4684 1.77197 57.5919 1.81213 57.6944 1.88668C57.797 1.96123 57.8733 2.06635 57.9124 2.18695L59.7275 7.77485H65.7422C65.8704 7.77478 65.9952 7.81576 66.0984 7.89177C66.2015 7.96778 66.2777 8.07483 66.3156 8.19725C66.3536 8.31967 66.3513 8.45102 66.3092 8.57207C66.2671 8.69311 66.1873 8.79749 66.0816 8.86992L61.2044 12.2114L63.0844 17.7817C63.1148 17.8719 63.1234 17.968 63.1094 18.0622C63.0953 18.1563 63.0591 18.2458 63.0037 18.3231C62.9482 18.4005 62.8752 18.4636 62.7906 18.5072C62.7059 18.5508 62.6122 18.5736 62.517 18.5737Z" fill="#FFC107"/>
<path d="M85.8929 18.5737C85.7666 18.5742 85.6433 18.5349 85.5407 18.4612L80.7175 14.9645L75.8943 18.4612C75.7912 18.536 75.6671 18.576 75.5398 18.5755C75.4125 18.5751 75.2887 18.5341 75.1862 18.4587C75.0837 18.3832 75.0078 18.277 74.9696 18.1556C74.9314 18.0342 74.9328 17.9038 74.9736 17.7832L76.8547 12.2114L71.9794 8.86805C71.8738 8.79571 71.7941 8.6915 71.7519 8.57064C71.7098 8.44977 71.7074 8.3186 71.7451 8.19627C71.7828 8.07395 71.8586 7.96688 71.9615 7.89073C72.0644 7.81457 72.1889 7.77331 72.3169 7.77297H78.3316L80.1467 2.18695C80.1858 2.06635 80.2621 1.96123 80.3647 1.88668C80.4672 1.81213 80.5907 1.77197 80.7175 1.77197C80.8443 1.77197 80.9678 1.81213 81.0704 1.88668C81.1729 1.96123 81.2492 2.06635 81.2883 2.18695L83.1034 7.77485H89.1181C89.2463 7.77478 89.3711 7.81576 89.4743 7.89177C89.5775 7.96778 89.6536 8.07483 89.6915 8.19725C89.7295 8.31967 89.7272 8.45102 89.6851 8.57207C89.643 8.69311 89.5632 8.79749 89.4575 8.86992L84.5803 12.2114L86.4603 17.7817C86.4908 17.8719 86.4993 17.968 86.4853 18.0622C86.4713 18.1563 86.435 18.2458 86.3796 18.3231C86.3242 18.4005 86.2511 18.4636 86.1665 18.5072C86.0818 18.5508 85.9881 18.5736 85.8929 18.5737Z" fill="#FFC107"/>
<path d="M109.269 18.5737C109.142 18.5742 109.019 18.5349 108.917 18.4612L104.093 14.9645L99.2702 18.4612C99.1672 18.536 99.043 18.576 98.9157 18.5755C98.7884 18.5751 98.6646 18.5341 98.5621 18.4587C98.4596 18.3832 98.3837 18.277 98.3455 18.1556C98.3073 18.0342 98.3087 17.9038 98.3495 17.7832L100.231 12.2114L95.3553 8.86805C95.2497 8.79571 95.17 8.6915 95.1278 8.57064C95.0857 8.44977 95.0833 8.3186 95.121 8.19627C95.1587 8.07395 95.2345 7.96688 95.3374 7.89073C95.4403 7.81457 95.5648 7.77331 95.6928 7.77297H101.708L103.523 2.18695C103.562 2.06635 103.638 1.96123 103.741 1.88668C103.843 1.81213 103.967 1.77197 104.093 1.77197C104.22 1.77197 104.344 1.81213 104.446 1.88668C104.549 1.96123 104.625 2.06635 104.664 2.18695L106.479 7.77485H112.494C112.622 7.77478 112.747 7.81576 112.85 7.89177C112.953 7.96778 113.03 8.07483 113.067 8.19725C113.105 8.31967 113.103 8.45102 113.061 8.57207C113.019 8.69311 112.939 8.79749 112.833 8.86992L107.956 12.2114L109.836 17.7817C109.867 17.8719 109.875 17.968 109.861 18.0622C109.847 18.1563 109.811 18.2458 109.756 18.3231C109.7 18.4005 109.627 18.4636 109.542 18.5072C109.458 18.5508 109.364 18.5736 109.269 18.5737Z" fill="#FFC107"/>
<defs>
<clipPath id="clip0_693_6412">
<rect width="23.3759" height="23.3759" fill="white" transform="translate(24.2342 0.312012)"/>
</clipPath>
</defs>
</svg>
