<svg width="353" height="78" viewBox="0 0 353 78" fill="none" xmlns="http://www.w3.org/2000/svg">
<g clip-path="url(#clip0_2972_3329)">
<path d="M94.6101 0.429741C95.8752 0.209333 97.1561 0.0922798 98.4401 0.0797402H223.38C225.172 -0.0773356 226.976 0.148231 228.674 0.741484C230.372 1.33474 231.924 2.28213 233.228 3.52084C234.532 4.75956 235.558 6.2613 236.238 7.92652C236.917 9.59173 237.235 11.3824 237.17 13.1797C237.22 30.1797 237.17 47.2397 237.17 64.2597C237.34 68.8597 235.34 73.7397 231.17 76.0497C227.72 78.4297 223.38 77.8297 219.43 77.8897C178.763 77.8897 138.097 77.8897 97.4301 77.8897C94.9525 77.8758 92.5341 77.1311 90.4778 75.749C88.4214 74.3668 86.8186 72.4087 85.8701 70.1197C84.8701 67.6397 84.8701 64.9097 84.8701 62.2697C84.9501 45.6497 84.8701 29.0297 84.9301 12.4197C84.9911 9.63223 85.9741 6.94351 87.7256 4.7741C89.477 2.60469 91.8981 1.07692 94.6101 0.429741ZM102.26 15.0297C98.6101 17.0297 94.5301 19.1697 92.7801 23.1997C97.2201 23.9597 101.28 21.5997 105.38 20.3197C120.68 14.5497 138.12 13.3197 153.64 18.9597C157.14 20.4397 161.64 22.8197 161.47 27.2297C161.52 31.4397 157.91 34.3797 154.62 36.3597C146.62 40.7297 137.62 42.4797 128.71 43.8097C129.32 38.7397 131.11 33.3497 129.23 28.3597C128.61 26.2797 126.39 26.3597 124.62 26.1597C122.46 32.1597 122.62 38.6297 122 44.9097C112.44 47.1797 102.04 45.7997 93.0901 50.1797C95.0605 51.0808 97.2152 51.5055 99.3801 51.4197C106.84 51.0797 114.28 50.4197 121.7 49.5397C122.07 56.3197 120.88 63.6597 124.33 69.8597C128.7 63.7597 127.62 55.7097 128.46 48.6297C137.28 47.4297 146.15 45.6297 154.39 42.1997C160.24 39.6097 166.39 35.1297 167.24 28.2997C168.13 23.2997 164.9 18.5997 160.88 15.9297C155.98 12.8297 150.31 11.2597 144.69 10.0797C130.384 7.08041 115.491 8.8179 102.26 15.0297ZM201.83 30.6997C199.6 31.6197 198.5 35.2897 200.83 36.6997C204.09 38.5497 209.06 37.7497 210.83 34.1997C211.44 29.3197 204.92 28.8197 201.83 30.6997ZM162.95 55.1797C163.33 59.1797 164.63 64.6397 169.32 65.4697C173.06 65.8097 175.16 62.2397 176.46 59.2997C177.99 60.9397 180.35 63.0297 182.69 61.5497C187.94 58.1997 187.44 51.0397 190.98 46.5497C190.72 51.0697 189.28 55.7097 190.81 60.1597C191.24 61.7697 192.57 63.3397 194.39 63.1597C197.85 63.1597 199.59 59.6397 201.28 57.1597C202.28 59.8297 204.7 63.0697 207.95 61.7897C212.32 58.7897 213.28 53.2297 215.06 48.6097C217.93 50.3397 221.3 52.0697 222.49 55.4497C223.33 57.2197 223.28 59.5397 221.43 60.6497C218.3 59.7597 219.61 56.0097 219.03 53.6497C218.192 53.3099 217.271 53.235 216.389 53.4353C215.508 53.6356 214.709 54.1013 214.1 54.7697C212.35 57.1097 213.58 60.4097 215.53 62.2197C220.06 66.0897 228.77 62.4597 228.3 56.2197C228.05 50.9797 222.64 48.4497 218.25 47.2197C221.935 46.6334 225.562 45.7266 229.09 44.5097C229.084 43.4642 228.784 42.4414 228.226 41.5576C227.667 40.6737 226.872 39.9642 225.93 39.5097C222.984 41.2806 219.694 42.4023 216.28 42.7997C214.73 43.0697 211.95 42.8597 212.17 45.2297C211.894 50.0449 210.253 54.682 207.44 58.5997C205.61 53.5997 207.26 48.3197 207.62 43.2197C206.87 40.8997 202.98 40.1197 201.95 42.4997C201.24 48.4997 200.15 55.1097 195.75 59.5497C194.58 54.5497 196.13 49.5497 196.83 44.6697C194.913 44.5448 192.99 44.5247 191.07 44.6097C191.14 43.1997 191.2 41.7897 191.23 40.3797C189.81 40.5597 187.95 40.2197 187.09 41.6697C185.77 43.5697 187.23 45.9697 186.57 48.0497C185.657 51.7636 184.144 55.3036 182.09 58.5297C180.09 53.6097 181.84 48.3397 181.99 43.2697C181.4 40.8297 178.58 41.1397 176.69 41.4497C174.87 39.4497 172.24 37.8297 169.53 39.1197C163.7 41.9997 162.61 49.3197 162.95 55.1797Z" fill="#EB2226"/>
<path d="M170.66 44.5397C171.36 42.9597 173.1 43.3297 174.49 43.2197C176.22 49.1197 175.72 56.0097 172.14 61.1297C171.42 62.6997 168.91 61.5397 168.89 60.1297C167.454 54.8987 168.088 49.3157 170.66 44.5397Z" fill="#EB2226"/>
<path d="M0.0100098 16.4399H9.20001C13.44 22.7599 18.13 28.8299 22.33 35.1799C26.8 28.9499 31.1 22.6099 35.62 16.4199C38.62 16.4199 41.71 16.4199 44.76 16.4199C44.76 30.9599 44.76 45.4999 44.76 60.0399H36.76C36.76 49.5599 36.76 39.0799 36.76 28.5999C31.91 35.0499 27.44 41.6999 22.44 48.0099C20.31 46.4599 19.09 44.0799 17.54 42.0099C14.34 37.5699 11.2 33.0899 8.08001 28.5899C7.97001 39.0699 8.08001 49.5899 8.03001 60.0399H0.0300102C0.0233436 45.5133 0.0166764 30.9799 0.0100098 16.4399Z" fill="#3554D1"/>
<path d="M247.19 16.4297H281.94V23.9597C277.52 23.9597 273.1 23.9597 268.69 23.9597C268.69 35.9597 268.69 47.9597 268.69 59.9597H260.69C260.69 47.9597 260.69 35.9597 260.69 23.9597H247.2C247.18 21.4497 247.19 18.9397 247.19 16.4297Z" fill="#3554D1"/>
<path d="M307.82 16.5799C310.49 15.3699 314.07 17.0299 314.23 20.1199C314.86 23.2099 311.44 26.1799 308.49 25.0599C304.8 24.0899 304.44 18.1799 307.82 16.5799Z" fill="#3554D1"/>
<path d="M48.9099 29.3096H57.5999C60.1599 36.5396 62.5099 43.8496 65.1499 51.0496C67.2199 43.5496 70.6399 36.5396 73.4399 29.3096C76.1999 29.3096 78.9699 29.3096 81.7299 29.3096C75.5699 43.7896 69.5399 58.3096 63.5199 72.8396C60.7999 72.8396 58.0699 72.8396 55.3499 72.7796C57.0499 68.2796 59.0299 63.8896 60.8199 59.4296C56.8099 49.4196 52.9799 39.3196 48.9099 29.3096Z" fill="#3554D1"/>
<path d="M280.01 29.3098C282.28 29.3098 284.57 29.2098 286.85 29.3898C286.98 30.1598 287.24 31.6898 287.36 32.4498C290.98 27.0398 298.83 27.6798 303.57 31.1898C302.45 33.4498 301.29 35.6898 300.19 37.9698C297.88 36.4998 295.07 35.3898 292.36 36.4198C289.36 37.0198 287.45 40.1198 287.55 43.0798C287.48 48.6998 287.55 54.3298 287.55 59.9598C285.04 59.9598 282.55 59.9598 280.03 59.9598C280.01 49.7698 279.99 39.5398 280.01 29.3098Z" fill="#3554D1"/>
<path d="M306.18 29.0801H313.62C313.62 39.3801 313.62 49.6801 313.62 59.9801H306.15C306.18 49.6901 306.13 39.3901 306.18 29.0801Z" fill="#3554D1"/>
<path d="M320.07 29.3096C322.403 29.3096 324.737 29.3096 327.07 29.3096C327.2 30.6396 327.33 31.9796 327.45 33.3096C333.5 25.3696 347.04 28.1696 350.82 36.9596C353.69 43.7096 352.94 52.8896 346.9 57.7196C341.35 61.9196 332.54 62.0096 327.53 56.8596C327.53 62.1896 327.53 67.5096 327.53 72.8596H320.05C320.08 58.3296 320.04 43.8196 320.07 29.3096ZM335.44 36.0596C329.05 36.5896 326.04 44.9196 329.74 49.8196C332.99 54.8196 341.64 54.3996 344.01 48.7496C347.25 42.9596 342.3 34.7396 335.44 36.0596Z" fill="#3554D1"/>
</g>
<defs>
<clipPath id="clip0_2972_3329">
<rect width="352.42" height="77.87" fill="white"/>
</clipPath>
</defs>
</svg>
