<svg width="42" height="42" viewBox="0 0 42 42" fill="none" xmlns="http://www.w3.org/2000/svg">
<path d="M29.5625 0.166016H12.1042C4.52083 0.166016 0 4.68685 0 12.2702V29.7077C0 37.3118 4.52083 41.8327 12.1042 41.8327H29.5417C37.125 41.8327 41.6458 37.3118 41.6458 29.7285V12.2702C41.6667 4.68685 37.1458 0.166016 29.5625 0.166016ZM26.6458 22.1035L19.2917 29.4577C18.9792 29.7702 18.5833 29.916 18.1875 29.916C17.7917 29.916 17.3958 29.7702 17.0833 29.4577C16.4792 28.8535 16.4792 27.8535 17.0833 27.2493C20.5351 23.7976 20.5351 18.2011 17.0833 14.7493C16.4792 14.1452 16.4792 13.1452 17.0833 12.541C17.6875 11.9368 18.6875 11.9368 19.2917 12.541L26.6458 19.8952C27.2708 20.4993 27.2708 21.4993 26.6458 22.1035Z" fill="#3554D1"/>
</svg>
