<svg width="36" height="36" viewBox="0 0 36 36" fill="none" xmlns="http://www.w3.org/2000/svg">
<g clip-path="url(#clip0_732_9311)">
<path opacity="0.2" fill-rule="evenodd" clip-rule="evenodd" d="M13.1369 7.62069C12.5158 7.76853 11.947 8.08343 11.492 8.53132C11.0371 8.9792 10.7133 9.543 10.5557 10.1617L8.45918 18.3814C7.66862 18.5428 6.9581 18.9724 6.44787 19.5974C5.93763 20.2225 5.65902 21.0046 5.65918 21.8114V26.8672C5.65914 27.5365 5.85102 28.1918 6.21206 28.7554C6.57309 29.3189 7.08815 29.7672 7.69618 30.0469C7.50688 30.4169 7.4085 30.8266 7.40918 31.2422V32.9922C7.40918 33.6884 7.68574 34.3561 8.17802 34.8484C8.67031 35.3406 9.33799 35.6172 10.0342 35.6172C10.7304 35.6172 11.3981 35.3406 11.8903 34.8484C12.3826 34.3561 12.6592 33.6884 12.6592 32.9922V31.2422C12.6592 30.9359 12.6067 30.6402 12.5104 30.3672H28.5579C28.4589 30.6483 28.4086 30.9442 28.4092 31.2422V32.9922C28.4092 33.6884 28.6857 34.3561 29.178 34.8484C29.6703 35.3406 30.338 35.6172 31.0342 35.6172C31.7304 35.6172 32.3981 35.3406 32.8903 34.8484C33.3826 34.3561 33.6592 33.6884 33.6592 32.9922V31.2422C33.6592 30.8117 33.5542 30.4057 33.3722 30.0469C33.9802 29.7672 34.4953 29.3189 34.8563 28.7554C35.2173 28.1918 35.4092 27.5365 35.4092 26.8672V21.8114C35.4093 21.0043 35.1304 20.222 34.6198 19.5969C34.1092 18.9719 33.3983 18.5425 32.6074 18.3814L30.5127 10.1617C30.3551 9.543 30.0313 8.9792 29.5763 8.53132C29.1213 8.08343 28.5525 7.76853 27.9314 7.62069C25.5085 7.03969 23.0258 6.74485 20.5342 6.74219C18.0667 6.74219 15.6009 7.03619 13.1369 7.62069Z" fill="url(#paint0_linear_732_9311)"/>
<path fill-rule="evenodd" clip-rule="evenodd" d="M7.93066 7.53669L5.83416 15.7564C5.04328 15.9174 4.33236 16.3469 3.82177 16.9719C3.31119 17.597 3.03233 18.3793 3.03241 19.1864V24.2422C3.03241 25.1704 3.40116 26.0607 4.05754 26.7171C4.71391 27.3734 5.60415 27.7422 6.53241 27.7422H29.2824C30.2107 27.7422 31.1009 27.3734 31.7573 26.7171C32.4137 26.0607 32.7824 25.1704 32.7824 24.2422V19.1864C32.7825 18.3793 32.5036 17.597 31.9931 16.9719C31.4825 16.3469 30.7715 15.9174 29.9807 15.7564L27.8859 7.53669C27.7283 6.918 27.4045 6.3542 26.9496 5.90631C26.4946 5.45843 25.9258 5.14353 25.3047 4.99569C22.8823 4.41483 20.4002 4.11998 17.9092 4.11719C15.4417 4.11719 12.9742 4.41119 10.5102 4.99569C9.88907 5.14353 9.32025 5.45843 8.86527 5.90631C8.4103 6.3542 8.08824 6.918 7.93066 7.53669ZM6.53416 17.4364C6.72864 17.4367 6.91766 17.3721 7.07136 17.253C7.22506 17.1338 7.33468 16.9668 7.38291 16.7784L9.62641 7.96719C9.70527 7.65773 9.86731 7.37576 10.095 7.15181C10.3226 6.92785 10.6072 6.77046 10.9179 6.69669C13.2079 6.14804 15.5543 5.86964 17.9092 5.86719C20.2367 5.86719 22.5677 6.14369 24.9004 6.69844C25.2108 6.7725 25.495 6.93001 25.7223 7.15394C25.9497 7.37788 26.1114 7.6597 26.1902 7.96894L28.4337 16.7784C28.4819 16.9668 28.5915 17.1338 28.7452 17.253C28.8989 17.3721 29.0879 17.4367 29.2824 17.4364C29.7465 17.4364 30.1917 17.6208 30.5199 17.949C30.848 18.2772 31.0324 18.7223 31.0324 19.1864V24.2422C31.0324 24.7063 30.848 25.1514 30.5199 25.4796C30.1917 25.8078 29.7465 25.9922 29.2824 25.9922H6.53241C6.06828 25.9922 5.62316 25.8078 5.29497 25.4796C4.96678 25.1514 4.78241 24.7063 4.78241 24.2422V19.1864C4.78241 18.7223 4.96678 18.2772 5.29497 17.949C5.62316 17.6208 6.07003 17.4364 6.53416 17.4364Z" fill="url(#paint1_linear_732_9311)"/>
<path fill-rule="evenodd" clip-rule="evenodd" d="M10.0342 28.6172C10.0342 27.921 9.75762 27.2533 9.26534 26.761C8.77305 26.2688 8.10537 25.9922 7.40918 25.9922C6.71299 25.9922 6.04531 26.2688 5.55302 26.761C5.06074 27.2533 4.78418 27.921 4.78418 28.6172V30.3672C4.78418 31.0634 5.06074 31.7311 5.55302 32.2234C6.04531 32.7156 6.71299 32.9922 7.40918 32.9922C8.10537 32.9922 8.77305 32.7156 9.26534 32.2234C9.75762 31.7311 10.0342 31.0634 10.0342 30.3672V28.6172ZM6.53418 28.6172C6.53418 28.3851 6.62637 28.1626 6.79046 27.9985C6.95456 27.8344 7.17712 27.7422 7.40918 27.7422C7.64124 27.7422 7.8638 27.8344 8.0279 27.9985C8.19199 28.1626 8.28418 28.3851 8.28418 28.6172V30.3672C8.28418 30.5993 8.19199 30.8218 8.0279 30.9859C7.8638 31.15 7.64124 31.2422 7.40918 31.2422C7.17712 31.2422 6.95456 31.15 6.79046 30.9859C6.62637 30.8218 6.53418 30.5993 6.53418 30.3672V28.6172ZM31.0342 28.6172C31.0342 27.921 30.7576 27.2533 30.2653 26.761C29.7731 26.2688 29.1054 25.9922 28.4092 25.9922C27.713 25.9922 27.0453 26.2688 26.553 26.761C26.0607 27.2533 25.7842 27.921 25.7842 28.6172V30.3672C25.7842 31.0634 26.0607 31.7311 26.553 32.2234C27.0453 32.7156 27.713 32.9922 28.4092 32.9922C29.1054 32.9922 29.7731 32.7156 30.2653 32.2234C30.7576 31.7311 31.0342 31.0634 31.0342 30.3672V28.6172ZM27.5342 28.6172C27.5342 28.3851 27.6264 28.1626 27.7905 27.9985C27.9546 27.8344 28.1771 27.7422 28.4092 27.7422C28.6412 27.7422 28.8638 27.8344 29.0279 27.9985C29.192 28.1626 29.2842 28.3851 29.2842 28.6172V30.3672C29.2842 30.5993 29.192 30.8218 29.0279 30.9859C28.8638 31.15 28.6412 31.2422 28.4092 31.2422C28.1771 31.2422 27.9546 31.15 27.7905 30.9859C27.6264 30.8218 27.5342 30.5993 27.5342 30.3672V28.6172ZM26.6592 24.2422C27.3554 24.2422 28.0231 23.9656 28.5153 23.4733C29.0076 22.9811 29.2842 22.3134 29.2842 21.6172C29.2842 20.921 29.0076 20.2533 28.5153 19.761C28.0231 19.2688 27.3554 18.9922 26.6592 18.9922C25.963 18.9922 25.2953 19.2688 24.803 19.761C24.3107 20.2533 24.0342 20.921 24.0342 21.6172C24.0342 22.3134 24.3107 22.9811 24.803 23.4733C25.2953 23.9656 25.963 24.2422 26.6592 24.2422ZM26.6592 20.7422C26.8912 20.7422 27.1138 20.8344 27.2779 20.9985C27.442 21.1626 27.5342 21.3851 27.5342 21.6172C27.5342 21.8493 27.442 22.0718 27.2779 22.2359C27.1138 22.4 26.8912 22.4922 26.6592 22.4922C26.4271 22.4922 26.2046 22.4 26.0405 22.2359C25.8764 22.0718 25.7842 21.8493 25.7842 21.6172C25.7842 21.3851 25.8764 21.1626 26.0405 20.9985C26.2046 20.8344 26.4271 20.7422 26.6592 20.7422ZM9.15918 24.2422C9.85537 24.2422 10.5231 23.9656 11.0153 23.4733C11.5076 22.9811 11.7842 22.3134 11.7842 21.6172C11.7842 20.921 11.5076 20.2533 11.0153 19.761C10.5231 19.2688 9.85537 18.9922 9.15918 18.9922C8.46299 18.9922 7.79531 19.2688 7.30302 19.761C6.81074 20.2533 6.53418 20.921 6.53418 21.6172C6.53418 22.3134 6.81074 22.9811 7.30302 23.4733C7.79531 23.9656 8.46299 24.2422 9.15918 24.2422ZM9.15918 20.7422C9.39124 20.7422 9.6138 20.8344 9.7779 20.9985C9.94199 21.1626 10.0342 21.3851 10.0342 21.6172C10.0342 21.8493 9.94199 22.0718 9.7779 22.2359C9.6138 22.4 9.39124 22.4922 9.15918 22.4922C8.92712 22.4922 8.70456 22.4 8.54046 22.2359C8.37637 22.0718 8.28418 21.8493 8.28418 21.6172C8.28418 21.3851 8.37637 21.1626 8.54046 20.9985C8.70456 20.8344 8.92712 20.7422 9.15918 20.7422ZM22.5432 8.49219H13.2752C12.6876 8.49215 12.1171 8.68922 11.6548 9.05187C11.1925 9.41452 10.8653 9.92178 10.7254 10.4924L9.86793 13.9924C9.77323 14.3789 9.76763 14.7818 9.85154 15.1708C9.93545 15.5597 10.1067 15.9245 10.3523 16.2375C10.5979 16.5506 10.9115 16.8037 11.2693 16.9777C11.6271 17.1518 12.0198 17.2422 12.4177 17.2422H23.4007C23.7986 17.2422 24.1913 17.1518 24.5491 16.9777C24.9069 16.8037 25.2205 16.5506 25.4661 16.2375C25.7117 15.9245 25.8829 15.5597 25.9668 15.1708C26.0507 14.7818 26.0451 14.3789 25.9504 13.9924L25.0929 10.4924C24.953 9.92148 24.6255 9.41401 24.1629 9.05133C23.7003 8.68865 23.131 8.49176 22.5432 8.49219ZM12.4247 10.9089C12.4713 10.7186 12.5805 10.5495 12.7347 10.4286C12.8889 10.3077 13.0792 10.242 13.2752 10.2422H22.5432C22.7388 10.2424 22.9288 10.3082 23.0826 10.4291C23.2365 10.55 23.3454 10.7189 23.3919 10.9089L24.2494 14.4089C24.281 14.5377 24.2829 14.6719 24.255 14.8014C24.227 14.931 24.1701 15.0525 24.0883 15.1569C24.0066 15.2612 23.9022 15.3456 23.7831 15.4037C23.664 15.4618 23.5332 15.492 23.4007 15.4922H12.4177C12.285 15.4923 12.154 15.4622 12.0347 15.4042C11.9153 15.3463 11.8108 15.2619 11.7288 15.1575C11.6469 15.0532 11.5897 14.9316 11.5617 14.8019C11.5337 14.6722 11.5356 14.5378 11.5672 14.4089L12.4247 10.9089Z" fill="url(#paint2_linear_732_9311)"/>
</g>
<defs>
<linearGradient id="paint0_linear_732_9311" x1="35.4087" y1="17.9312" x2="5.59765" y2="18.0605" gradientUnits="userSpaceOnUse">
<stop stop-color="#EB2226" stop-opacity="0.7"/>
<stop offset="0.551667" stop-color="#3554D1" stop-opacity="0.85"/>
<stop offset="1" stop-color="#3554D1"/>
</linearGradient>
<linearGradient id="paint1_linear_732_9311" x1="32.7819" y1="13.2719" x2="2.97116" y2="13.4298" gradientUnits="userSpaceOnUse">
<stop stop-color="#EB2226" stop-opacity="0.7"/>
<stop offset="0.551667" stop-color="#3554D1" stop-opacity="0.85"/>
<stop offset="1" stop-color="#3554D1"/>
</linearGradient>
<linearGradient id="paint2_linear_732_9311" x1="31.0337" y1="17.9859" x2="4.72993" y2="18.1045" gradientUnits="userSpaceOnUse">
<stop stop-color="#EB2226" stop-opacity="0.7"/>
<stop offset="0.551667" stop-color="#3554D1" stop-opacity="0.85"/>
<stop offset="1" stop-color="#3554D1"/>
</linearGradient>
<clipPath id="clip0_732_9311">
<rect width="35" height="35" fill="white" transform="translate(0.40918 0.617188)"/>
</clipPath>
</defs>
</svg>
