<svg width="35" height="36" viewBox="0 0 35 36" fill="none" xmlns="http://www.w3.org/2000/svg">
<path opacity="0.2" fill-rule="evenodd" clip-rule="evenodd" d="M27.4575 17.5575C28.2236 17.8287 28.9163 18.2742 29.4809 18.8588C30.0454 19.4434 30.4665 20.1512 30.7107 20.9263L32.9875 28.0138C33.8835 30.8033 32.41 33.8098 29.6992 34.7303C29.1768 34.9077 28.6288 34.9982 28.077 34.998H13.9195C11.067 34.998 8.75 32.618 8.75 29.6815C8.75 29.1163 8.8375 28.5528 9.0125 28.0155L11.2875 20.928C11.5317 20.1524 11.9529 19.4442 12.5178 18.8592C13.0827 18.2743 13.7759 17.8287 14.5425 17.5575C14.203 16.4498 14 15.3928 14 14.4985C14 10.3563 17.1325 6.99805 21 6.99805C24.8675 6.99805 28 10.3563 28 14.4985C28 15.3928 27.7987 16.4498 27.4575 17.5575Z" fill="url(#paint0_linear_732_9338)"/>
<path fill-rule="evenodd" clip-rule="evenodd" d="M17.5 15.748C18.4283 15.748 19.3185 15.3793 19.9749 14.7229C20.6313 14.0665 21 13.1763 21 12.248C21 11.3198 20.6313 10.4296 19.9749 9.77317C19.3185 9.1168 18.4283 8.74805 17.5 8.74805C16.5717 8.74805 15.6815 9.1168 15.0251 9.77317C14.3687 10.4296 14 11.3198 14 12.248C14 13.1763 14.3687 14.0665 15.0251 14.7229C15.6815 15.3793 16.5717 15.748 17.5 15.748ZM17.5 10.498C17.9641 10.498 18.4092 10.6824 18.7374 11.0106C19.0656 11.3388 19.25 11.7839 19.25 12.248C19.25 12.7122 19.0656 13.1573 18.7374 13.4855C18.4092 13.8137 17.9641 13.998 17.5 13.998C17.0359 13.998 16.5908 13.8137 16.2626 13.4855C15.9344 13.1573 15.75 12.7122 15.75 12.248C15.75 11.7839 15.9344 11.3388 16.2626 11.0106C16.5908 10.6824 17.0359 10.498 17.5 10.498Z" fill="url(#paint1_linear_732_9338)"/>
<path fill-rule="evenodd" clip-rule="evenodd" d="M9.625 11.8735C9.625 16.5513 14.2677 24.498 17.5 24.498C20.734 24.498 25.375 16.5513 25.375 11.8735C25.375 7.26055 21.8628 3.49805 17.5 3.49805C13.1372 3.49805 9.625 7.26055 9.625 11.8735ZM23.625 11.8735C23.625 15.7113 19.516 22.748 17.5 22.748C15.4858 22.748 11.375 15.713 11.375 11.8735C11.375 8.2003 14.1312 5.24805 17.5 5.24805C20.8687 5.24805 23.625 8.2003 23.625 11.8735Z" fill="url(#paint2_linear_732_9338)"/>
<path d="M23.5113 16.8678C23.302 16.7777 23.1361 16.6096 23.0489 16.3992C22.9616 16.1888 22.9598 15.9527 23.0439 15.741C23.128 15.5293 23.2913 15.3587 23.4992 15.2656C23.707 15.1724 23.943 15.1639 24.157 15.242C24.8686 15.5243 25.5099 15.9587 26.0359 16.515C26.5619 17.0712 26.9599 17.7357 27.202 18.462L29.5365 25.462C29.7998 26.2515 29.8716 27.0923 29.746 27.915C29.6204 28.7377 29.301 29.5187 28.8142 30.1937C28.3274 30.8687 27.6871 31.4183 26.9461 31.7972C26.2052 32.176 25.3847 32.3733 24.5525 32.3728H10.4475C9.61557 32.3728 8.79555 32.1751 8.05502 31.796C7.31448 31.4169 6.67465 30.8672 6.18824 30.1923C5.70183 29.5174 5.38278 28.7365 5.25739 27.9141C5.13199 27.0917 5.20383 26.2512 5.467 25.462L7.79975 18.462C8.04607 17.7227 8.45387 17.0475 8.99357 16.4854C9.53327 15.9233 10.1913 15.4884 10.92 15.2123C11.0274 15.1715 11.1419 15.1522 11.2567 15.1557C11.3716 15.1591 11.4847 15.1851 11.5895 15.2322C11.6943 15.2794 11.7888 15.3467 11.8676 15.4303C11.9464 15.514 12.008 15.6123 12.0488 15.7198C12.0895 15.8272 12.1088 15.9416 12.1053 16.0565C12.1019 16.1714 12.0759 16.2844 12.0288 16.3892C11.9816 16.4941 11.9143 16.5886 11.8307 16.6674C11.747 16.7462 11.6487 16.8077 11.5413 16.8485C11.0549 17.0325 10.6156 17.3226 10.2553 17.6976C9.89511 18.0727 9.62299 18.5233 9.45875 19.0168L7.126 26.0168C6.95075 26.5429 6.90305 27.1032 6.98681 27.6514C7.07058 28.1996 7.28342 28.7201 7.6078 29.1699C7.93218 29.6197 8.35881 29.986 8.85253 30.2386C9.34624 30.4912 9.89292 30.6229 10.4475 30.6228H24.556C25.1106 30.6227 25.6573 30.4908 26.151 30.238C26.6447 29.9852 27.0712 29.6187 27.3954 29.1687C27.7196 28.7187 27.9323 28.1981 28.0158 27.6498C28.0993 27.1014 28.0513 26.5411 27.8758 26.015L25.5448 19.015C25.3832 18.531 25.1178 18.0882 24.7672 17.7176C24.4165 17.347 23.989 17.0576 23.5148 16.8695" fill="url(#paint3_linear_732_9338)"/>
<defs>
<linearGradient id="paint0_linear_732_9338" x1="33.2494" y1="17.848" x2="8.6992" y2="17.9384" gradientUnits="userSpaceOnUse">
<stop stop-color="#EB2226" stop-opacity="0.7"/>
<stop offset="0.551667" stop-color="#3554D1" stop-opacity="0.85"/>
<stop offset="1" stop-color="#3554D1"/>
</linearGradient>
<linearGradient id="paint1_linear_732_9338" x1="20.9999" y1="11.4605" x2="13.9855" y2="11.4901" gradientUnits="userSpaceOnUse">
<stop stop-color="#EB2226" stop-opacity="0.7"/>
<stop offset="0.551667" stop-color="#3554D1" stop-opacity="0.85"/>
<stop offset="1" stop-color="#3554D1"/>
</linearGradient>
<linearGradient id="paint2_linear_732_9338" x1="25.3747" y1="11.6355" x2="9.59229" y2="11.6853" gradientUnits="userSpaceOnUse">
<stop stop-color="#EB2226" stop-opacity="0.7"/>
<stop offset="0.551667" stop-color="#3554D1" stop-opacity="0.85"/>
<stop offset="1" stop-color="#3554D1"/>
</linearGradient>
<linearGradient id="paint3_linear_732_9338" x1="29.8057" y1="21.827" x2="5.14694" y2="21.9753" gradientUnits="userSpaceOnUse">
<stop stop-color="#EB2226" stop-opacity="0.7"/>
<stop offset="0.551667" stop-color="#3554D1" stop-opacity="0.85"/>
<stop offset="1" stop-color="#3554D1"/>
</linearGradient>
</defs>
</svg>
