<svg width="52" height="36" viewBox="0 0 52 36" fill="none" xmlns="http://www.w3.org/2000/svg">
<path opacity="0.2" d="M14.4092 14.2155C14.4092 13.1663 14.6133 12.1602 14.9767 11.4184C15.34 10.6765 15.8328 10.2598 16.3467 10.2598H43.4717C43.9855 10.2598 44.4783 10.6765 44.8417 11.4184C45.2051 12.1602 45.4092 13.1663 45.4092 14.2155V24.6585C45.4092 24.9235 45.3317 25.1609 45.2154 25.2598" fill="url(#paint0_linear_732_9329)"/>
<path fill-rule="evenodd" clip-rule="evenodd" d="M10.9639 10.2708C10.9639 9.50225 11.2692 8.7652 11.8126 8.22177C12.356 7.67834 13.0931 7.37305 13.8616 7.37305H40.9071C41.6756 7.37305 42.4126 7.67834 42.9561 8.22177C43.4995 8.7652 43.8048 9.50225 43.8048 10.2708V15.3708C43.8048 15.8904 43.4938 16.356 43.0166 16.555C42.7321 16.6738 42.4891 16.8741 42.3182 17.1307C42.1473 17.3873 42.0561 17.6888 42.0561 17.9971C42.0561 18.3054 42.1473 18.6068 42.3182 18.8634C42.4891 19.12 42.7321 19.3204 43.0166 19.4392C43.2502 19.5368 43.4496 19.7013 43.5899 19.912C43.7301 20.1227 43.8049 20.3703 43.8048 20.6234V25.7253C43.8048 26.4938 43.4995 27.2309 42.9561 27.7743C42.4126 28.3178 41.6756 28.623 40.9071 28.623H13.8616C13.0931 28.623 12.356 28.3178 11.8126 27.7743C11.2692 27.2309 10.9639 26.4938 10.9639 25.7253V20.6253C10.9639 20.1057 11.2749 19.6401 11.752 19.4392C12.0365 19.3204 12.2795 19.12 12.4504 18.8634C12.6214 18.6068 12.7126 18.3054 12.7126 17.9971C12.7126 17.6888 12.6214 17.3873 12.4504 17.1307C12.2795 16.8741 12.0365 16.6738 11.752 16.555C11.5188 16.4575 11.3195 16.2933 11.1793 16.0829C11.0391 15.8726 10.9641 15.6255 10.9639 15.3727V10.2708ZM13.8616 9.30487C13.6054 9.30487 13.3597 9.40663 13.1786 9.58777C12.9975 9.76892 12.8957 10.0146 12.8957 10.2708V14.967C15.2293 16.2865 15.2293 19.7096 12.8957 21.0291V25.7253C12.8957 25.9815 12.9975 26.2272 13.1786 26.4083C13.3597 26.5895 13.6054 26.6912 13.8616 26.6912H40.9071C41.1632 26.6912 41.4089 26.5895 41.5901 26.4083C41.7712 26.2272 41.873 25.9815 41.873 25.7253V21.0291C39.5393 19.7096 39.5393 16.2865 41.873 14.967V10.2708C41.873 10.0146 41.7712 9.76892 41.5901 9.58777C41.4089 9.40663 41.1632 9.30487 40.9071 9.30487H13.8616Z" fill="url(#paint1_linear_732_9329)"/>
<path fill-rule="evenodd" clip-rule="evenodd" d="M25.4488 24.2759C25.8331 24.2759 26.2016 24.4286 26.4733 24.7003C26.745 24.972 26.8977 25.3405 26.8977 25.7248V26.6907C26.8977 27.075 26.745 27.4435 26.4733 27.7152C26.2016 27.9869 25.8331 28.1396 25.4488 28.1396C25.0645 28.1396 24.696 27.9869 24.4243 27.7152C24.1526 27.4435 23.9999 27.075 23.9999 26.6907V25.7248C23.9999 25.3405 24.1526 24.972 24.4243 24.7003C24.696 24.4286 25.0645 24.2759 25.4488 24.2759ZM25.4488 7.85547C25.8331 7.85547 26.2016 8.00812 26.4733 8.27983C26.745 8.55155 26.8977 8.92007 26.8977 9.30433V10.2702C26.8977 10.6545 26.745 11.023 26.4733 11.2947C26.2016 11.5665 25.8331 11.7191 25.4488 11.7191C25.0645 11.7191 24.696 11.5665 24.4243 11.2947C24.1526 11.023 23.9999 10.6545 23.9999 10.2702V9.30433C23.9999 8.92007 24.1526 8.55155 24.4243 8.27983C24.696 8.00812 25.0645 7.85547 25.4488 7.85547ZM25.4488 13.168C25.8331 13.168 26.2016 13.3206 26.4733 13.5923C26.745 13.864 26.8977 14.2326 26.8977 14.6168V15.5827C26.8977 15.967 26.745 16.3355 26.4733 16.6072C26.2016 16.879 25.8331 17.0316 25.4488 17.0316C25.0645 17.0316 24.696 16.879 24.4243 16.6072C24.1526 16.3355 23.9999 15.967 23.9999 15.5827V14.6168C23.9999 14.2326 24.1526 13.864 24.4243 13.5923C24.696 13.3206 25.0645 13.168 25.4488 13.168ZM25.4488 18.9634C25.8331 18.9634 26.2016 19.1161 26.4733 19.3878C26.745 19.6595 26.8977 20.028 26.8977 20.4123V21.3782C26.8977 21.7625 26.745 22.131 26.4733 22.4027C26.2016 22.6744 25.8331 22.8271 25.4488 22.8271C25.0645 22.8271 24.696 22.6744 24.4243 22.4027C24.1526 22.131 23.9999 21.7625 23.9999 21.3782V20.4123C23.9999 20.028 24.1526 19.6595 24.4243 19.3878C24.696 19.1161 25.0645 18.9634 25.4488 18.9634Z" fill="url(#paint2_linear_732_9329)"/>
<defs>
<linearGradient id="paint0_linear_732_9329" x1="45.4087" y1="16.0723" x2="14.3468" y2="16.3424" gradientUnits="userSpaceOnUse">
<stop stop-color="#EB2226" stop-opacity="0.7"/>
<stop offset="0.551667" stop-color="#3554D1" stop-opacity="0.85"/>
<stop offset="1" stop-color="#3554D1"/>
</linearGradient>
<linearGradient id="paint1_linear_732_9329" x1="43.8042" y1="15.6074" x2="10.8967" y2="15.8214" gradientUnits="userSpaceOnUse">
<stop stop-color="#EB2226" stop-opacity="0.7"/>
<stop offset="0.551667" stop-color="#3554D1" stop-opacity="0.85"/>
<stop offset="1" stop-color="#3554D1"/>
</linearGradient>
<linearGradient id="paint2_linear_732_9329" x1="26.8976" y1="15.7155" x2="23.9939" y2="15.7173" gradientUnits="userSpaceOnUse">
<stop stop-color="#EB2226" stop-opacity="0.7"/>
<stop offset="0.551667" stop-color="#3554D1" stop-opacity="0.85"/>
<stop offset="1" stop-color="#3554D1"/>
</linearGradient>
</defs>
</svg>
