<svg width="41" height="41" viewBox="0 0 41 41" fill="none" xmlns="http://www.w3.org/2000/svg">
<path d="M28.5611 0.166992H11.7928C4.50916 0.166992 0.166992 4.50916 0.166992 11.7928V28.5411C0.166992 35.8448 4.50916 40.1869 11.7928 40.1869H28.5411C35.8248 40.1869 40.1669 35.8448 40.1669 28.5611V11.7928C40.1869 4.50916 35.8448 0.166992 28.5611 0.166992ZM23.7587 26.18C24.339 26.7602 24.339 27.7207 23.7587 28.301C23.4586 28.6012 23.0784 28.7412 22.6982 28.7412C22.318 28.7412 21.9378 28.6012 21.6377 28.301L14.5742 21.2375C13.9939 20.6572 13.9939 19.6967 14.5742 19.1164L21.6377 12.0529C22.218 11.4726 23.1785 11.4726 23.7587 12.0529C24.339 12.6332 24.339 13.5937 23.7587 14.174V14.174C20.4434 17.4893 20.4434 22.8646 23.7587 26.18V26.18Z" fill="#3554D1"/>
</svg>
