<svg width="29" height="29" viewBox="0 0 29 29" fill="none" xmlns="http://www.w3.org/2000/svg">
<path fill-rule="evenodd" clip-rule="evenodd" d="M15.4997 25.7087C16.8402 25.7087 18.1677 25.4446 19.4062 24.9316C20.6447 24.4186 21.7701 23.6666 22.718 22.7187C23.666 21.7708 24.4179 20.6454 24.9309 19.4069C25.4439 18.1684 25.708 16.8409 25.708 15.5003C25.708 14.1597 25.4439 12.8323 24.9309 11.5938C24.4179 10.3552 23.666 9.22988 22.718 8.28194C21.7701 7.33401 20.6447 6.58207 19.4062 6.06906C18.1677 5.55604 16.8402 5.29199 15.4997 5.29199C12.7922 5.29199 10.1957 6.36751 8.28127 8.28194C6.36684 10.1964 5.29132 12.7929 5.29132 15.5003C5.29132 18.2077 6.36684 20.8043 8.28127 22.7187C10.1957 24.6331 12.7922 25.7087 15.4997 25.7087ZM12.7099 8.76283C13.5944 8.39676 14.5424 8.20846 15.4997 8.20866C15.693 8.20866 15.8785 8.13184 16.0153 7.99509C16.152 7.85835 16.2288 7.67288 16.2288 7.47949C16.2288 7.28611 16.152 7.10064 16.0153 6.96389C15.8785 6.82715 15.693 6.75033 15.4997 6.75033C13.179 6.75033 10.9534 7.6722 9.31247 9.31314C7.67153 10.9541 6.74965 13.1797 6.74965 15.5003C6.74965 15.6937 6.82648 15.8792 6.96322 16.0159C7.09997 16.1527 7.28543 16.2295 7.47882 16.2295C7.67221 16.2295 7.85767 16.1527 7.99442 16.0159C8.13116 15.8792 8.20799 15.6937 8.20799 15.5003C8.20786 14.058 8.63552 12.6479 9.43686 11.4487C10.2382 10.2494 11.3772 9.31468 12.7099 8.76283Z" fill="white" fill-opacity="0.25"/>
<path d="M27.8955 27.8962L22.7913 22.792" stroke="white" stroke-width="1.5" stroke-linecap="round"/>
<path d="M14.0413 26.4382C20.8874 26.4382 26.4372 20.8884 26.4372 14.0423C26.4372 7.19629 20.8874 1.64648 14.0413 1.64648C7.19531 1.64648 1.64551 7.19629 1.64551 14.0423C1.64551 20.8884 7.19531 26.4382 14.0413 26.4382Z" stroke="white" stroke-width="1.5"/>
</svg>
