<svg width="20" height="20" viewBox="0 0 20 20" fill="none" xmlns="http://www.w3.org/2000/svg">
<path d="M9.11664 1.60938C4.98432 1.60938 1.61816 4.97548 1.61816 9.10776C1.61816 13.24 4.98432 16.6127 9.11664 16.6127C10.8817 16.6127 12.505 15.9941 13.7879 14.9671L16.9113 18.0889C17.069 18.24 17.2795 18.3233 17.4978 18.3211C17.7162 18.3189 17.9249 18.2312 18.0794 18.0769C18.2339 17.9227 18.3219 17.714 18.3244 17.4957C18.3269 17.2774 18.2439 17.0667 18.093 16.9089L14.9696 13.7856C15.9974 12.5006 16.6167 10.8748 16.6167 9.10776C16.6167 4.97548 13.249 1.60938 9.11664 1.60938ZM9.11664 3.27607C12.3482 3.27607 14.9484 5.87623 14.9484 9.10776C14.9484 12.3393 12.3482 14.946 9.11664 14.946C5.88506 14.946 3.28485 12.3393 3.28485 9.10776C3.28485 5.87623 5.88506 3.27607 9.11664 3.27607Z" fill="white"/>
</svg>
