<svg width="20" height="20" viewBox="0 0 20 20" fill="none" xmlns="http://www.w3.org/2000/svg">
<path fill-rule="evenodd" clip-rule="evenodd" d="M11.6784 14.1668L11.6734 15.836C11.6725 16.2277 11.6717 16.4235 11.5492 16.5452C11.4267 16.6668 11.2309 16.6668 10.8375 16.6668H8.3292C5.1792 16.6668 3.6042 16.6668 2.62503 15.6902C1.95003 15.0185 1.74086 14.0643 1.67503 12.5093C1.66253 12.201 1.65586 12.046 1.71336 11.9435C1.7717 11.841 2.00086 11.7127 2.46086 11.4552C2.71997 11.3107 2.93581 11.0997 3.08606 10.8439C3.23632 10.5881 3.31554 10.2968 3.31554 10.0002C3.31554 9.70351 3.23632 9.41223 3.08606 9.15644C2.93581 8.90065 2.71997 8.68962 2.46086 8.54516C2.00086 8.2885 1.77086 8.15933 1.71336 8.05683C1.65586 7.95433 1.66253 7.80016 1.67586 7.491C1.74086 5.936 1.95086 4.98266 2.62503 4.31016C3.60336 3.3335 5.17836 3.3335 8.3292 3.3335H11.2542C11.3089 3.33339 11.3631 3.34406 11.4137 3.36489C11.4643 3.38573 11.5103 3.41633 11.5491 3.45495C11.5878 3.49356 11.6186 3.53943 11.6397 3.58994C11.6607 3.64045 11.6716 3.69461 11.6717 3.74933L11.6784 5.8335C11.6784 6.2935 12.0525 6.66683 12.5134 6.66683V8.3335C12.0525 8.3335 11.6784 8.70683 11.6784 9.16683V10.8335C11.6784 11.2935 12.0525 11.6668 12.5134 11.6668V13.3335C12.0525 13.3335 11.6784 13.7068 11.6784 14.1668Z" fill="#3554D1"/>
<path opacity="0.5" d="M12.5142 13.3334C12.975 13.3334 13.3492 13.7067 13.3492 14.1667V15.8134C13.3492 16.2151 13.3492 16.4159 13.4783 16.5384C13.6067 16.6617 13.8033 16.6534 14.1975 16.6367C15.75 16.5709 16.7033 16.3609 17.3758 15.6901C18.05 15.0184 18.2592 14.0634 18.325 12.5084C18.3375 12.2001 18.3442 12.0459 18.2867 11.9434C18.2292 11.8401 17.9992 11.7117 17.5392 11.4551C17.28 11.3106 17.0642 11.0996 16.914 10.8438C16.7637 10.588 16.6845 10.2967 16.6845 10.0001C16.6845 9.70342 16.7637 9.41214 16.914 9.15635C17.0642 8.90056 17.28 8.68953 17.5392 8.54507C17.9992 8.28757 18.2292 8.15924 18.2867 8.05674C18.345 7.95341 18.3375 7.79924 18.325 7.49091C18.2592 5.93591 18.05 4.98174 17.375 4.30924C16.6442 3.58008 15.58 3.39591 13.7733 3.34924C13.7181 3.34791 13.6632 3.35764 13.6118 3.37785C13.5604 3.39807 13.5135 3.42836 13.474 3.46696C13.4345 3.50555 13.4031 3.55166 13.3816 3.60257C13.3602 3.65348 13.3491 3.70817 13.3492 3.76341V5.83341C13.3492 6.29341 12.975 6.66674 12.5142 6.66674V8.33341C12.6237 8.33319 12.7323 8.35458 12.8336 8.39636C12.9349 8.43814 13.0269 8.49949 13.1045 8.5769C13.1821 8.6543 13.2436 8.74624 13.2856 8.84745C13.3276 8.94867 13.3492 9.05717 13.3492 9.16674V10.8334C13.3492 11.2934 12.975 11.6667 12.5142 11.6667V13.3334Z" fill="#3554D1"/>
</svg>
