<svg width="16" height="16" viewBox="0 0 16 16" fill="none" xmlns="http://www.w3.org/2000/svg">
<path d="M10.1316 7.24688L8.64727 9.60626C8.58654 9.69042 8.51268 9.76428 8.42852 9.82501C8.22534 9.96675 7.97445 10.0226 7.73031 9.98056C7.48617 9.93848 7.26848 9.8018 7.12449 9.60021C6.98049 9.39862 6.92181 9.14837 6.96118 8.90377C7.00055 8.65918 7.13479 8.43999 7.33477 8.29376L9.69415 6.80938C9.74778 6.772 9.81158 6.75195 9.87696 6.75195C9.94233 6.75195 10.0061 6.772 10.0598 6.80938C10.1271 6.85801 10.1725 6.93133 10.186 7.0133C10.1994 7.09528 10.1799 7.17926 10.1316 7.24688Z" fill="black"/>
<path d="M7.94141 2C4.07579 2 0.941413 5.13125 0.941413 8.99687C0.939042 10.7071 1.56517 12.3587 2.70079 13.6375C2.73516 13.675 2.76641 13.7125 2.80079 13.7469C2.87474 13.8269 2.96451 13.8908 3.06441 13.9343C3.16431 13.9779 3.27217 14.0002 3.38116 13.9999C3.49015 13.9996 3.59789 13.9767 3.69755 13.9326C3.79722 13.8885 3.88665 13.8242 3.96016 13.7437C4.46688 13.1931 5.08233 12.7535 5.76761 12.4528C6.45288 12.1522 7.19308 11.9969 7.94141 11.9969C8.68975 11.9969 9.42995 12.1522 10.1152 12.4528C10.8005 12.7535 11.4159 13.1931 11.9227 13.7437C11.9962 13.8242 12.0856 13.8885 12.1853 13.9326C12.2849 13.9767 12.3927 13.9996 12.5017 13.9999C12.6107 14.0002 12.7185 13.9779 12.8184 13.9343C12.9183 13.8908 13.0081 13.8269 13.082 13.7469L13.182 13.6375C14.3177 12.3587 14.9438 10.7071 14.9414 8.99687C14.9414 5.13125 11.807 2 7.94141 2Z" stroke="black" stroke-width="1.25" stroke-linecap="round" stroke-linejoin="round"/>
<path d="M7.94141 4V5M12.9414 9H11.9414M3.94141 9H2.94141M5.11297 6.17156L4.40578 5.46438M10.7698 6.17156L11.477 5.46438" stroke="black" stroke-width="1.25" stroke-miterlimit="10" stroke-linecap="round"/>
</svg>
