<svg width="40" height="40" viewBox="0 0 40 40" fill="none" xmlns="http://www.w3.org/2000/svg">
<g clip-path="url(#clip0_693_6355)">
<path d="M10.6663 20.0002L18.6663 26.6668L29.333 13.3335M19.9997 38.6668C17.5483 38.6668 15.121 38.184 12.8563 37.2459C10.5915 36.3078 8.53371 34.9328 6.80035 33.1995C5.06699 31.4661 3.69201 29.4083 2.75392 27.1436C1.81584 24.8788 1.33301 22.4515 1.33301 20.0002C1.33301 17.5488 1.81584 15.1215 2.75392 12.8567C3.69201 10.592 5.06699 8.5342 6.80035 6.80084C8.53371 5.06748 10.5915 3.6925 12.8563 2.75441C15.121 1.81632 17.5483 1.3335 19.9997 1.3335C24.9504 1.3335 29.6983 3.30016 33.199 6.80084C36.6997 10.3015 38.6663 15.0495 38.6663 20.0002C38.6663 24.9509 36.6997 29.6988 33.199 33.1995C29.6983 36.7002 24.9504 38.6668 19.9997 38.6668Z" stroke="white" stroke-width="2" stroke-linecap="round"/>
</g>
<defs>
<clipPath id="clip0_693_6355">
<rect width="40" height="40" fill="white"/>
</clipPath>
</defs>
</svg>
