<svg width="45" height="45" viewBox="0 0 45 45" fill="none" xmlns="http://www.w3.org/2000/svg">
<rect x="1.72436" y="1.84033" width="41.2382" height="41.832" rx="20.6191" stroke="white" stroke-width="2.42577"/>
<path d="M29.7407 18.5371C29.7407 18.7267 29.7407 18.8783 29.7407 19.0678C29.7407 24.3363 25.7609 30.3628 18.4457 30.3628C16.1716 30.3628 14.0869 29.7184 12.3434 28.5814C12.6466 28.6193 12.9498 28.6572 13.291 28.6572C15.1482 28.6572 16.8538 28.0128 18.2183 26.9515C16.4748 26.9136 14.9966 25.7766 14.5038 24.1846C14.7692 24.2226 14.9966 24.2605 15.2619 24.2605C15.603 24.2605 15.982 24.1846 16.2853 24.1088C14.4659 23.7298 13.1014 22.1379 13.1014 20.2049V20.167C13.6321 20.4702 14.2764 20.6218 14.9208 20.6597C13.8216 19.9395 13.1393 18.7267 13.1393 17.3622C13.1393 16.6041 13.3289 15.9219 13.67 15.3533C15.6409 17.7412 18.5973 19.3331 21.8949 19.5226C21.8191 19.2194 21.7812 18.9162 21.7812 18.6129C21.7812 16.4146 23.5626 14.6332 25.7609 14.6332C26.898 14.6332 27.9214 15.088 28.6795 15.884C29.5512 15.6944 30.423 15.3533 31.181 14.8985C30.8778 15.8461 30.2714 16.6041 29.4375 17.0968C30.2335 17.021 31.0294 16.7936 31.7117 16.4904C31.181 17.2864 30.4988 17.9686 29.7407 18.5371Z" fill="white"/>
</svg>
