<svg width="30" height="30" viewBox="0 0 30 30" fill="none" xmlns="http://www.w3.org/2000/svg">
<path fill-rule="evenodd" clip-rule="evenodd" d="M14.125 7.75H6.25C5.58696 7.75 4.95107 8.01339 4.48223 8.48223C4.01339 8.95107 3.75 9.58696 3.75 10.25V23.75C3.75 24.413 4.01339 25.0489 4.48223 25.5178C4.95107 25.9866 5.58696 26.25 6.25 26.25H20C21.375 26.25 22.5 25 22.5 23.625V13.75L17.5 19C17.125 19.375 16.625 19.75 16 19.875L12.625 20.625C10.5 21 8.5 19 8.875 16.75L9.625 13.125C9.75 12.5 10.125 11.875 10.5 11.5L14.25 7.625L14.125 7.75Z" fill="white"/>
<path fill-rule="evenodd" clip-rule="evenodd" d="M24.75 5.37461C24.5149 4.77919 24.0704 4.2902 23.5 3.99961C23.044 3.79958 22.5386 3.74031 22.0486 3.82939C21.5586 3.91847 21.1065 4.15185 20.75 4.49961L20 5.24961L23.625 8.99961L24.25 8.24961C24.4926 8.00207 24.6838 7.70893 24.8125 7.38712C24.9412 7.0653 25.005 6.72118 25 6.37461C25 6.12461 25 5.74961 24.75 5.37461ZM21.75 10.8746L18.25 7.12461L12.25 13.3746L12.125 13.7496L11.25 17.4996C11.25 17.8746 11.625 18.3746 12 18.2496L15.375 17.4996L15.75 17.3746L21.625 11.1246L21.75 10.8746Z" fill="white"/>
</svg>
