<svg width="33" height="34" viewBox="0 0 33 34" fill="none" xmlns="http://www.w3.org/2000/svg">
<path opacity="0.2" d="M32.9997 18.7552C32.9997 22.7947 31.395 26.6687 28.5387 29.525C25.6823 32.3813 21.8083 33.986 17.7689 33.986C13.7294 33.986 9.85541 32.3813 6.99908 29.525C4.14275 26.6687 2.53809 22.7947 2.53809 18.7552C2.53809 14.7157 4.14275 10.8417 6.99908 7.98541C9.85541 5.12908 13.7294 3.52441 17.7689 3.52441C21.8083 3.52441 25.6823 5.12908 28.5387 7.98541C31.395 10.8417 32.9997 14.7157 32.9997 18.7552Z" fill="url(#paint0_linear_732_9320)"/>
<path fill-rule="evenodd" clip-rule="evenodd" d="M14.2592 5.26759L16.1664 1.45312L17.6793 2.21128L15.7721 6.02406C15.6834 6.20152 15.6599 6.40448 15.7057 6.5975C15.7515 6.79052 15.8637 6.96132 16.0226 7.08006L16.5996 7.51329C16.6638 7.56191 16.7393 7.59339 16.819 7.60473C16.8988 7.61607 16.98 7.60692 17.0552 7.57813C17.1304 7.54934 17.197 7.50186 17.2488 7.44018C17.3006 7.3785 17.3357 7.30465 17.351 7.2256C17.4247 6.85738 17.5927 6.51463 17.8388 6.23097C18.0848 5.94731 18.4004 5.73248 18.7545 5.60756C19.1086 5.48264 19.4891 5.45192 19.8587 5.5184C20.2283 5.58489 20.5742 5.74631 20.8626 5.98683L22.4923 7.34575C22.7956 7.5986 23.0357 7.91874 23.1936 8.2807C23.3515 8.64266 23.4228 9.03647 23.4017 9.43081C23.3807 9.82514 23.268 10.2091 23.0725 10.5523C22.877 10.8954 22.6042 11.1881 22.2756 11.4073L21.9033 11.6561C21.8107 11.7183 21.7313 11.7982 21.6698 11.8913L20.4496 13.7207C20.3568 13.86 20.3073 14.0237 20.3075 14.1911V14.6701C20.3069 15.3431 20.0391 15.9883 19.5629 16.4639L19.2143 16.8159C19.0246 17.0059 18.7993 17.1565 18.5513 17.2594C18.3033 17.3622 18.0375 17.4151 17.769 17.4151C17.5006 17.4151 17.2348 17.3622 16.9868 17.2594C16.7388 17.1565 16.5135 17.0059 16.3238 16.8159C16.2581 16.7506 16.1693 16.7139 16.0767 16.7139C15.9841 16.7139 15.8953 16.7506 15.8296 16.8159L15.7687 16.8752C15.6951 16.9498 15.6506 17.0483 15.6432 17.1528C15.6357 17.2574 15.6658 17.3611 15.7281 17.4455L17.3595 19.6201C17.4386 19.7252 17.5412 19.8104 17.659 19.8689L18.7709 20.4256C19.0547 20.5727 19.2714 20.8228 19.3766 21.1247C19.4817 21.4265 19.4673 21.7572 19.3363 22.0488C19.2052 22.3403 18.9675 22.5706 18.6719 22.6924C18.3764 22.8142 18.0454 22.8181 17.747 22.7035L14.3032 21.3259C14.0716 21.2336 13.8549 21.1075 13.6601 20.9519L9.79317 17.8584C9.62596 17.7244 9.47641 17.5697 9.34809 17.3981L7.42224 14.8308C7.1955 14.529 7.03895 14.1803 6.964 13.8102C6.88906 13.4402 6.8976 13.0581 6.98901 12.6918L7.50686 10.6187C7.55046 10.4462 7.53862 10.2645 7.47301 10.0991L6.10393 6.68067C5.98375 6.37979 5.92229 6.05867 5.92286 5.73467V5.21682H7.61517V5.73636C7.61523 5.84421 7.63591 5.95105 7.67609 6.05113L9.04347 9.47129C9.24161 9.9662 9.27892 10.5109 9.15009 11.0282L8.63055 13.103C8.59983 13.2252 8.5968 13.3528 8.62168 13.4763C8.64657 13.5999 8.69875 13.7163 8.7744 13.8171L10.7002 16.3844C10.7427 16.4411 10.7922 16.4923 10.8475 16.5367L14.7161 19.6319C14.7804 19.6827 14.8515 19.7267 14.9293 19.7572L15.5216 19.9941L14.3726 18.4625C14.0649 18.0527 13.9156 17.5456 13.9519 17.0345C13.9883 16.5233 14.208 16.0425 14.5706 15.6804L14.6298 15.6195C14.8195 15.4295 15.0448 15.2788 15.2928 15.176C15.5408 15.0732 15.8066 15.0203 16.075 15.0203C16.3435 15.0203 16.6093 15.0732 16.8573 15.176C17.1053 15.2788 17.3305 15.4295 17.5203 15.6195C17.6556 15.7565 17.879 15.7565 18.0144 15.6195L18.3664 15.2691C18.5246 15.1106 18.6134 14.8957 18.6135 14.6718V14.1928C18.6135 13.6917 18.7619 13.2018 19.04 12.7848L20.2601 10.9538C20.446 10.6749 20.6853 10.4357 20.9641 10.2498L21.3364 10.0027C21.4458 9.92953 21.5367 9.83187 21.6018 9.71745C21.6668 9.60303 21.7043 9.47501 21.7112 9.34356C21.7181 9.21212 21.6942 9.08088 21.6415 8.96028C21.5888 8.83967 21.5087 8.73303 21.4075 8.64883L19.7761 7.2899C19.713 7.23725 19.6374 7.20191 19.5565 7.18733C19.4757 7.17275 19.3924 7.17944 19.3149 7.20675C19.2374 7.23406 19.1684 7.28104 19.1145 7.34309C19.0607 7.40514 19.0239 7.48012 19.0078 7.56068C18.936 7.91955 18.7744 8.25438 18.5382 8.53392C18.302 8.81345 17.9988 9.02858 17.6569 9.15921C17.315 9.28984 16.9456 9.33173 16.5832 9.28095C16.2207 9.23017 15.8771 9.08838 15.5843 8.86883L15.0055 8.4356C14.5297 8.07898 14.1942 7.56668 14.0575 6.98803C13.9208 6.40938 13.9916 5.8011 14.2575 5.26929" fill="url(#paint1_linear_732_9320)"/>
<path fill-rule="evenodd" clip-rule="evenodd" d="M20.5788 22.4928C20.3892 22.4388 20.1867 22.4528 20.0063 22.5322C19.8259 22.6116 19.6788 22.7515 19.5905 22.9278L18.9051 24.2985C18.8462 24.4162 18.8155 24.546 18.8155 24.6776C18.8155 24.8092 18.8462 24.939 18.9051 25.0567L19.8782 27.0028C20.2031 27.6527 20.2336 28.4075 19.9645 29.0827L18.5548 32.6078L16.9844 31.9782L18.3941 28.4532C18.4386 28.342 18.4591 28.2227 18.4541 28.1031C18.4492 27.9835 18.4189 27.8663 18.3653 27.7593L17.3905 25.8131C17.2142 25.4606 17.1224 25.0718 17.1224 24.6776C17.1224 24.2834 17.2142 23.8946 17.3905 23.5421L18.0776 22.1713C18.3422 21.6418 18.7835 21.2214 19.3252 20.9829C19.8669 20.7443 20.475 20.7026 21.0442 20.8648L22.1087 21.1694C22.6418 21.3218 23.1088 21.6433 23.4422 22.0867L24.2968 23.2273C24.3222 23.2611 24.3476 23.2899 24.3764 23.3187L24.8908 23.8331C25.3382 24.2811 25.6019 24.8801 25.6304 25.5125C25.6589 26.145 25.4501 26.7652 25.0448 27.2516L22.1967 30.6718C22.0699 30.8238 22.0005 31.0154 22.0004 31.2133V31.4468H20.3081V31.2133C20.3081 30.621 20.5162 30.0456 20.897 29.5887L23.7452 26.1702C23.8806 26.0081 23.9505 25.8011 23.9411 25.5901C23.9317 25.379 23.8437 25.1791 23.6944 25.0296L23.1799 24.5151C23.0946 24.4306 23.0155 24.3401 22.943 24.2444L22.0884 23.1021C21.9772 22.9547 21.8209 22.8477 21.6433 22.7974L20.5788 22.4928Z" fill="url(#paint2_linear_732_9320)"/>
<path fill-rule="evenodd" clip-rule="evenodd" d="M16.077 2.67864C14.1879 2.67864 12.3174 3.05071 10.5722 3.7736C8.82696 4.4965 7.24121 5.55607 5.90547 6.8918C4.56974 8.22754 3.51017 9.81329 2.78728 11.5585C2.06438 13.3037 1.69231 15.1743 1.69231 17.0633C1.69231 18.9523 2.06438 20.8228 2.78728 22.568C3.51017 24.3133 4.56974 25.899 5.90547 27.2348C7.24121 28.5705 8.82696 29.6301 10.5722 30.353C12.3174 31.0758 14.1879 31.4479 16.077 31.4479C19.892 31.4479 23.5508 29.9324 26.2484 27.2348C28.9461 24.5371 30.4616 20.8783 30.4616 17.0633C30.4616 13.2482 28.9461 9.58945 26.2484 6.8918C23.5508 4.19416 19.892 2.67864 16.077 2.67864ZM0 17.0633C-3.14602e-08 14.952 0.415843 12.8614 1.22378 10.9109C2.03173 8.96035 3.21595 7.18804 4.70883 5.69516C6.20171 4.20228 7.97402 3.01806 9.92457 2.21011C11.8751 1.40217 13.9657 0.986328 16.077 0.986328C18.1882 0.986328 20.2788 1.40217 22.2293 2.21011C24.1799 3.01806 25.9522 4.20228 27.4451 5.69516C28.938 7.18804 30.1222 8.96035 30.9301 10.9109C31.7381 12.8614 32.1539 14.952 32.1539 17.0633C32.1539 21.3272 30.4601 25.4164 27.4451 28.4314C24.4301 31.4464 20.3408 33.1402 16.077 33.1402C11.8131 33.1402 7.72384 31.4464 4.70883 28.4314C1.69382 25.4164 6.35366e-08 21.3272 0 17.0633Z" fill="url(#paint3_linear_732_9320)"/>
<defs>
<linearGradient id="paint0_linear_732_9320" x1="32.9991" y1="15.3283" x2="2.47505" y2="15.4567" gradientUnits="userSpaceOnUse">
<stop stop-color="#EB2226" stop-opacity="0.7"/>
<stop offset="0.551667" stop-color="#3554D1" stop-opacity="0.85"/>
<stop offset="1" stop-color="#3554D1"/>
</linearGradient>
<linearGradient id="paint1_linear_732_9320" x1="23.4051" y1="9.71987" x2="5.88657" y2="9.78027" gradientUnits="userSpaceOnUse">
<stop stop-color="#EB2226" stop-opacity="0.7"/>
<stop offset="0.551667" stop-color="#3554D1" stop-opacity="0.85"/>
<stop offset="1" stop-color="#3554D1"/>
</linearGradient>
<linearGradient id="paint2_linear_732_9320" x1="25.6329" y1="25.3556" x2="16.9664" y2="25.3823" gradientUnits="userSpaceOnUse">
<stop stop-color="#EB2226" stop-opacity="0.7"/>
<stop offset="0.551667" stop-color="#3554D1" stop-opacity="0.85"/>
<stop offset="1" stop-color="#3554D1"/>
</linearGradient>
<linearGradient id="paint3_linear_732_9320" x1="32.1534" y1="13.446" x2="-0.0665352" y2="13.5815" gradientUnits="userSpaceOnUse">
<stop stop-color="#EB2226" stop-opacity="0.7"/>
<stop offset="0.551667" stop-color="#3554D1" stop-opacity="0.85"/>
<stop offset="1" stop-color="#3554D1"/>
</linearGradient>
</defs>
</svg>
