<svg width="44" height="45" viewBox="0 0 44 45" fill="none" xmlns="http://www.w3.org/2000/svg">
<rect x="1.43884" y="1.84033" width="41.2382" height="41.832" rx="20.6191" stroke="white" stroke-width="2.42577"/>
<path d="M31.8665 17.5138C32.3213 19.1057 32.3213 22.5169 32.3213 22.5169C32.3213 22.5169 32.3213 25.8903 31.8665 27.5201C31.6391 28.4298 30.9189 29.112 30.0472 29.3394C28.4174 29.7563 21.9739 29.7563 21.9739 29.7563C21.9739 29.7563 15.4925 29.7563 13.8627 29.3394C12.991 29.112 12.2708 28.4298 12.0434 27.5201C11.5886 25.8903 11.5886 22.5169 11.5886 22.5169C11.5886 22.5169 11.5886 19.1057 12.0434 17.5138C12.2708 16.6041 12.991 15.884 13.8627 15.6565C15.4925 15.2017 21.9739 15.2017 21.9739 15.2017C21.9739 15.2017 28.4174 15.2017 30.0472 15.6565C30.9189 15.884 31.6391 16.6041 31.8665 17.5138ZM19.8514 25.587L25.2335 22.5169L19.8514 19.4468V25.587Z" fill="white"/>
</svg>
